<?xml version="1.0" encoding="UTF-8" standalone="no"?>
<!-- Created with Inkscape (http://www.inkscape.org/) -->

<svg
   xmlns:dc="http://purl.org/dc/elements/1.1/"
   xmlns:cc="http://creativecommons.org/ns#"
   xmlns:rdf="http://www.w3.org/1999/02/22-rdf-syntax-ns#"
   xmlns:svg="http://www.w3.org/2000/svg"
   xmlns="http://www.w3.org/2000/svg"
   xmlns:xlink="http://www.w3.org/1999/xlink"
   xmlns:sodipodi="http://sodipodi.sourceforge.net/DTD/sodipodi-0.dtd"
   xmlns:inkscape="http://www.inkscape.org/namespaces/inkscape"
   width="750"
   height="625"
   viewBox="0 0 198.4375 165.36459"
   version="1.1"
   id="svg8"
   inkscape:version="0.92.3 (2405546, 2018-03-11)"
   sodipodi:docname="nkscp1.0-graphicdesignstudio.svg">
  <defs
     id="defs2">
    <linearGradient
       inkscape:collect="always"
       id="linearGradient4875">
      <stop
         style="stop-color:#00112b;stop-opacity:1"
         offset="0"
         id="stop4871" />
      <stop
         id="stop4879"
         offset="0.37193269"
         style="stop-color:#003380;stop-opacity:1" />
      <stop
         style="stop-color:#002f78;stop-opacity:1;"
         offset="0.44674835"
         id="stop4881" />
      <stop
         id="stop4885"
         offset="0.54379022"
         style="stop-color:#00112b;stop-opacity:1" />
      <stop
         style="stop-color:#00112b;stop-opacity:1"
         offset="0.75628686"
         id="stop4887" />
      <stop
         id="stop4883"
         offset="0.8472839"
         style="stop-color:#002662;stop-opacity:1;" />
      <stop
         style="stop-color:#002255;stop-opacity:1"
         offset="1"
         id="stop4873" />
    </linearGradient>
    <linearGradient
       inkscape:collect="always"
       id="linearGradient4867">
      <stop
         style="stop-color:#0043a6;stop-opacity:1"
         offset="0"
         id="stop4863" />
      <stop
         id="stop978"
         offset="0.36348394"
         style="stop-color:#004cbf;stop-opacity:1;" />
      <stop
         id="stop976"
         offset="0.39494157"
         style="stop-color:#001636;stop-opacity:1" />
      <stop
         id="stop974"
         offset="0.81565821"
         style="stop-color:#0055d3;stop-opacity:1;" />
      <stop
         style="stop-color:#0066ff;stop-opacity:1"
         offset="1"
         id="stop4865" />
    </linearGradient>
    <linearGradient
       inkscape:collect="always"
       id="linearGradient4857">
      <stop
         style="stop-color:#0098ff;stop-opacity:1"
         offset="0"
         id="stop4853" />
      <stop
         id="stop4861"
         offset="0.19067571"
         style="stop-color:#065efb;stop-opacity:1;" />
      <stop
         style="stop-color:#1c2d6f;stop-opacity:1"
         offset="0.38094416"
         id="stop967" />
      <stop
         id="stop969"
         offset="0.53423637"
         style="stop-color:#3835be;stop-opacity:1;" />
      <stop
         style="stop-color:#3a2fc0;stop-opacity:1;"
         offset="0.65545732"
         id="stop972" />
      <stop
         style="stop-color:#5500d4;stop-opacity:1"
         offset="1"
         id="stop4855" />
    </linearGradient>
    <linearGradient
       inkscape:collect="always"
       id="linearGradient4847">
      <stop
         style="stop-color:#11002b;stop-opacity:1"
         offset="0"
         id="stop4843" />
      <stop
         id="stop4851"
         offset="0.41845468"
         style="stop-color:#5500d4;stop-opacity:1" />
      <stop
         style="stop-color:#330080;stop-opacity:1"
         offset="0.55450225"
         id="stop4889" />
      <stop
         style="stop-color:#11002b;stop-opacity:1"
         offset="1"
         id="stop4845" />
    </linearGradient>
    <linearGradient
       inkscape:collect="always"
       id="linearGradient4839">
      <stop
         style="stop-color:#003380;stop-opacity:1"
         offset="0"
         id="stop4835" />
      <stop
         style="stop-color:#2d1650;stop-opacity:1"
         offset="1"
         id="stop4837" />
    </linearGradient>
    <linearGradient
       inkscape:collect="always"
       id="linearGradient4831">
      <stop
         style="stop-color:#0055d4;stop-opacity:1;"
         offset="0"
         id="stop4827" />
      <stop
         style="stop-color:#8500a6;stop-opacity:1"
         offset="1"
         id="stop4829" />
    </linearGradient>
    <linearGradient
       inkscape:collect="always"
       xlink:href="#linearGradient4831"
       id="linearGradient4833"
       x1="38.884987"
       y1="106.93776"
       x2="115.35046"
       y2="43.460873"
       gradientUnits="userSpaceOnUse"
       gradientTransform="matrix(1.1452966,0,0,1.1452966,39.220293,117.25968)" />
    <linearGradient
       inkscape:collect="always"
       xlink:href="#linearGradient4839"
       id="linearGradient4841"
       x1="190.98283"
       y1="494.31827"
       x2="480.56528"
       y2="224.16454"
       gradientUnits="userSpaceOnUse"
       gradientTransform="matrix(0.30302637,0,0,0.30302637,39.220293,117.25968)" />
    <linearGradient
       inkscape:collect="always"
       xlink:href="#linearGradient4847"
       id="linearGradient4849"
       x1="210.87225"
       y1="430.07013"
       x2="440.02408"
       y2="230.47891"
       gradientUnits="userSpaceOnUse"
       gradientTransform="matrix(1.1452965,0,0,1.1452965,148.23418,-54.333429)" />
    <linearGradient
       inkscape:collect="always"
       xlink:href="#linearGradient4857"
       id="linearGradient4859"
       x1="223.05798"
       y1="146.57454"
       x2="470.57104"
       y2="418.2861"
       gradientUnits="userSpaceOnUse"
       gradientTransform="matrix(0.30302637,0,0,0.30302637,39.220293,117.25968)" />
    <linearGradient
       inkscape:collect="always"
       xlink:href="#linearGradient4867"
       id="linearGradient4869"
       x1="33.284088"
       y1="59.84375"
       x2="113.12613"
       y2="118.25316"
       gradientUnits="userSpaceOnUse"
       gradientTransform="matrix(1.1452966,0,0,1.1452966,39.220293,117.25968)" />
    <linearGradient
       inkscape:collect="always"
       xlink:href="#linearGradient4875"
       id="linearGradient4877"
       x1="42.965054"
       y1="59.380753"
       x2="108.13032"
       y2="126.05816"
       gradientUnits="userSpaceOnUse"
       gradientTransform="matrix(4.3286801,0,0,4.3286801,148.23418,-54.33343)" />
    <filter
       inkscape:collect="always"
       style="color-interpolation-filters:sRGB"
       id="filter4979"
       x="-0.12133256"
       width="1.2426651"
       y="-1.4906571"
       height="3.9813142">
      <feGaussianBlur
         inkscape:collect="always"
         stdDeviation="5.5048512"
         id="feGaussianBlur4981" />
    </filter>
    <linearGradient
       id="linearGradient927"
       inkscape:collect="always">
      <stop
         id="stop923"
         offset="0"
         style="stop-color:#ffffff;stop-opacity:1;" />
      <stop
         id="stop925"
         offset="1"
         style="stop-color:#ffffff;stop-opacity:0;" />
    </linearGradient>
    <linearGradient
       id="linearGradient975"
       gradientUnits="userSpaceOnUse">
      <stop
         style="stop-color:white;stop-opacity:1"
         offset="0"
         id="stop971" />
      <stop
         id="stop977"
         offset="0.30000001"
         style="stop-color:#ffffff;stop-opacity:1" />
      <stop
         style="stop-color:white;stop-opacity:0"
         offset="1"
         id="stop973" />
    </linearGradient>
    <linearGradient
       gradientUnits="userSpaceOnUse"
       id="linearGradient5785">
      <stop
         id="stop5787"
         offset="0"
         style="stop-color:#c0cdf9;stop-opacity:1" />
      <stop
         id="stop5789"
         offset="1"
         style="stop-color:#07092d;stop-opacity:0.28804347" />
    </linearGradient>
    <linearGradient
       gradientUnits="userSpaceOnUse"
       y2="60"
       x2="58"
       y1="35"
       x1="33"
       xlink:href="#linearGradient927"
       id="shinySpecular-4"
       gradientTransform="matrix(1.009184,0,0,1.009184,-0.3890738,-0.3831933)" />
    <linearGradient
       gradientUnits="userSpaceOnUse"
       y2="50"
       x2="90"
       y1="20"
       x1="60"
       xlink:href="#linearGradient927"
       id="IcecapTip-6" />
    <inkscape:path-effect
       is_visible="true"
       id="path-effect838"
       effect="spiro" />
    <inkscape:path-effect
       effect="spiro"
       id="path-effect834"
       is_visible="true" />
    <inkscape:path-effect
       effect="spiro"
       id="path-effect838-5"
       is_visible="true" />
    <inkscape:path-effect
       is_visible="true"
       id="path-effect834-3"
       effect="spiro" />
    <filter
       id="filter944"
       style="color-interpolation-filters:sRGB;"
       x="-0.3"
       width="1.6"
       y="-0.5"
       height="2"
       inkscape:menu-tooltip="Cloudy watercolor effect"
       inkscape:label="Watercolor"
       inkscape:menu="Textures">
      <feGaussianBlur
         id="feGaussianBlur926"
         result="result8"
         stdDeviation="15" />
      <feTurbulence
         id="feTurbulence928"
         baseFrequency="0.025"
         numOctaves="5"
         type="fractalNoise"
         result="result7"
         seed="27" />
      <feComposite
         id="feComposite930"
         in="result7"
         operator="over"
         result="result6"
         in2="result8" />
      <feColorMatrix
         id="feColorMatrix932"
         values="1 0 0 0 0 0 1 0 0 0 0 0 1 0 0 0 0 0 6 -4 "
         result="result9" />
      <feDisplacementMap
         id="feDisplacementMap934"
         result="result4"
         scale="45"
         yChannelSelector="A"
         xChannelSelector="A"
         in2="result9"
         in="result7" />
      <feComposite
         id="feComposite936"
         in="result8"
         operator="in"
         result="result2"
         in2="result4" />
      <feComposite
         id="feComposite938"
         in2="result9"
         operator="in"
         in="result2"
         result="fbSourceGraphic" />
      <feComposite
         id="feComposite940"
         result="result91"
         in2="fbSourceGraphic"
         in="fbSourceGraphic"
         k1="0.5"
         k2="1"
         operator="arithmetic" />
      <feBlend
         id="feBlend942"
         in2="result91"
         mode="multiply"
         in="fbSourceGraphic" />
    </filter>
    <filter
       id="filter1020"
       style="color-interpolation-filters:sRGB;"
       x="-0.3"
       width="1.6"
       y="-0.5"
       height="2"
       inkscape:menu-tooltip="Cloudy watercolor effect"
       inkscape:menu="Textures"
       inkscape:label="Watercolor">
      <feTurbulence
         id="feTurbulence1008"
         result="result0"
         numOctaves="4"
         baseFrequency="0.07"
         type="fractalNoise" />
      <feDisplacementMap
         id="feDisplacementMap1010"
         result="result2"
         scale="10"
         yChannelSelector="G"
         xChannelSelector="R"
         in="SourceGraphic"
         in2="result0" />
      <feBlend
         id="feBlend1012"
         in2="result2"
         mode="multiply"
         in="result2"
         result="result5" />
      <feGaussianBlur
         id="feGaussianBlur1014"
         result="result4"
         in="result2"
         stdDeviation="10" />
      <feComposite
         id="feComposite1016"
         result="result6"
         k1="2"
         k3="0.5"
         in="result0"
         in2="result4"
         operator="arithmetic" />
      <feComposite
         id="feComposite1018"
         result="fbSourceGraphic"
         in="result6"
         in2="result5"
         operator="in" />
      <feColorMatrix
         id="feColorMatrix1022"
         values="0 0 0 -1 0 0 0 0 -1 0 0 0 0 -1 0 0 0 0 1 0"
         in="fbSourceGraphic"
         result="fbSourceGraphicAlpha" />
      <feGaussianBlur
         in="fbSourceGraphic"
         result="result8"
         stdDeviation="15"
         id="feGaussianBlur1024" />
      <feTurbulence
         baseFrequency="0.025"
         numOctaves="5"
         type="fractalNoise"
         result="result7"
         seed="27"
         id="feTurbulence1026" />
      <feComposite
         in="result7"
         operator="over"
         result="result6"
         id="feComposite1028"
         in2="result8" />
      <feColorMatrix
         values="1 0 0 0 0 0 1 0 0 0 0 0 1 0 0 0 0 0 6 -4 "
         result="result9"
         id="feColorMatrix1030" />
      <feDisplacementMap
         result="result4"
         scale="45"
         yChannelSelector="A"
         xChannelSelector="A"
         in="result7"
         id="feDisplacementMap1032"
         in2="result9" />
      <feComposite
         in="result8"
         operator="in"
         result="result2"
         id="feComposite1034"
         in2="result4" />
      <feComposite
         operator="in"
         in="result2"
         result="fbSourceGraphic"
         id="feComposite1036"
         in2="result9" />
      <feComposite
         result="result91"
         in="fbSourceGraphic"
         k1="0.5"
         k2="1"
         operator="arithmetic"
         id="feComposite1038"
         in2="fbSourceGraphic" />
      <feBlend
         mode="multiply"
         in="fbSourceGraphic"
         id="feBlend1040"
         in2="result91" />
    </filter>
    <radialGradient
       gradientTransform="matrix(0.23834022,0,0,0.23834022,221.48877,130.71239)"
       gradientUnits="userSpaceOnUse"
       r="120.49665"
       fy="140.34344"
       fx="224.73076"
       cy="140.34344"
       cx="198.01227"
       id="radialGradient963"
       xlink:href="#linearGradient975"
       inkscape:collect="always" />
  </defs>
  <sodipodi:namedview
     id="base"
     pagecolor="#ffffff"
     bordercolor="#666666"
     borderopacity="1.0"
     inkscape:pageopacity="0.0"
     inkscape:pageshadow="2"
     inkscape:zoom="1.1534936"
     inkscape:cx="219.33368"
     inkscape:cy="244.31415"
     inkscape:document-units="mm"
     inkscape:current-layer="layer1"
     showgrid="false"
     inkscape:window-width="1366"
     inkscape:window-height="703"
     inkscape:window-x="0"
     inkscape:window-y="0"
     inkscape:window-maximized="1"
     inkscape:object-paths="true"
     inkscape:snap-global="false"
     units="px"
     showguides="true"
     inkscape:guide-bbox="true" />
  <metadata
     id="metadata5">
    <rdf:RDF>
      <cc:Work
         rdf:about="">
        <dc:format>image/svg+xml</dc:format>
        <dc:type
           rdf:resource="http://purl.org/dc/dcmitype/StillImage" />
        <dc:title />
      </cc:Work>
    </rdf:RDF>
  </metadata>
  <g
     inkscape:label="Layer 1"
     inkscape:groupmode="layer"
     id="layer1"
     transform="translate(0,-131.6354)">
    <rect
       style="opacity:1;fill:#dbdee3;fill-opacity:1;stroke:none;stroke-width:2.1591053;stroke-linecap:round;stroke-linejoin:round;stroke-miterlimit:4;stroke-dasharray:none;stroke-dashoffset:0;stroke-opacity:1;paint-order:normal"
       id="rect4891"
       width="208.43929"
       height="173.6994"
       x="-5.0008955"
       y="127.46799"
       inkscape:export-xdpi="96"
       inkscape:export-ydpi="96" />
    <path
       style="opacity:1;fill:url(#linearGradient4877);fill-opacity:1;stroke:none;stroke-width:8.65736008;stroke-linecap:round;stroke-linejoin:round;stroke-miterlimit:4;stroke-dasharray:none;stroke-dashoffset:0;stroke-opacity:1;paint-order:normal"
       d="m 349.57363,140.02875 -40.09121,32.46734 -6.40625,6.40625 0.75977,0.75977 c -25.21299,40.7969 12.92018,133.66817 91.43554,212.18555 78.49229,78.42432 171.73345,116.94421 212.5,91.75 l 0.15625,0.1582 0.54688,-0.54688 c 2.40922,-1.48599 3.64067,-5.14172 5.63898,-7.05797 2.1216,-3.34538 2.58504,-7.21582 5.26534,-9.1197 l 62.72263,-57.45123 C 641.71062,435.6327 550.35847,395.16399 471.36328,316.22266 404.46436,249.32385 365.77692,174.31058 370.36914,128.32617 h -12.92773 z"
       transform="matrix(0.26458333,0,0,0.26458333,0,131.6354)"
       id="path4771"
       inkscape:connector-curvature="0"
       sodipodi:nodetypes="ccccccccccccccc"
       inkscape:export-xdpi="96"
       inkscape:export-ydpi="96" />
    <path
       inkscape:connector-curvature="0"
       style="opacity:1;fill:url(#linearGradient4859);fill-opacity:1;stroke:none;stroke-width:2.29059315;stroke-linecap:round;stroke-linejoin:round;stroke-miterlimit:4;stroke-dasharray:none;stroke-dashoffset:0;stroke-opacity:1;paint-order:normal"
       d="m 109.64493,156.02337 c -3.14748,-0.02 -5.87071,0.64334 -8.07932,1.97205 -0.2431,0.14625 -0.58887,0.30748 -0.92187,0.51967 l -0.973825,0.97416 -19.480696,19.48068 c 5.090727,-5.09075 14.789877,-4.24168 26.149641,1.12628 7.93893,-7.49262 16.23309,-13.50696 24.00301,-17.6501 -7.70689,-4.10951 -14.89647,-6.38595 -20.69694,-6.42274 z m 44.69995,24.07284 c -7.55556,3.57028 -15.84435,9.14473 -24.00301,16.29891 2.30317,2.01961 4.59629,4.15891 6.85893,6.42156 20.88655,20.90082 30.04077,46.93267 23.1477,57.61942 2.6007,-1.39369 17.23227,-15.47276 21.53034,-21.83863 l 0.14441,-0.14441 -0.0414,-0.0414 c 6.66603,-10.78615 -4.05398,-34.80445 -24.80377,-55.5722 -0.93764,-0.93763 -1.88373,-1.84715 -2.83317,-2.74322 z"
       id="path4749"
       inkscape:export-xdpi="96"
       inkscape:export-ydpi="96"
       sodipodi:nodetypes="cscccccccccccccccc" />
    <path
       style="opacity:1;fill:url(#linearGradient4869);fill-opacity:1;stroke:none;stroke-width:2.29059315;stroke-linecap:round;stroke-linejoin:round;stroke-miterlimit:4;stroke-dasharray:none;stroke-dashoffset:0;stroke-opacity:1;paint-order:normal"
       d="m 80.188964,178.97009 a 57.175415,24.153312 45 0 0 23.350216,57.50818 57.175415,24.153312 45 0 0 57.50818,23.35021 57.175415,24.153312 45 0 0 -23.3502,-57.50818 57.175415,24.153312 45 0 0 -57.508196,-23.35021 z m 3.790353,3.79035 A 51.815218,21.88894 45 0 1 136.09597,203.92148 51.815218,21.88894 45 0 1 157.257,256.03812 51.815218,21.88894 45 0 1 105.14035,234.8771 51.815218,21.88894 45 0 1 83.979317,182.76044 Z"
       id="path4752"
       inkscape:connector-curvature="0"
       inkscape:export-xdpi="96"
       inkscape:export-ydpi="96" />
    <path
       style="opacity:1;fill:url(#linearGradient4849);fill-opacity:1;stroke:none;stroke-width:8.65736008;stroke-linecap:round;stroke-linejoin:round;stroke-miterlimit:4;stroke-dasharray:none;stroke-dashoffset:0;stroke-opacity:1;paint-order:normal"
       d="m 616.75,113.4668 v 0.0137 h -5.25781 c 7.96746,20.71444 3.04091,50.97971 -12.47657,85.10937 28.458,29.27328 51.61723,60.03352 68.08399,89.14454 22.47602,-44.7292 28.68138,-84.8442 14.32617,-108.07227 l 0.75781,-0.75977 -6.40625,-6.40625 z m -82.45508,181.11523 c -6.47372,7.27487 -13.2631,14.50334 -20.39844,21.63867 -78.99517,78.94129 -170.34731,119.41196 -210.73828,93.35938 l 62.67296,61.40625 c 1.61531,2.61388 4.52574,3.95071 6.64738,6.07919 1.99826,1.91625 1.89741,4.65747 4.30662,6.14346 l 0.54687,0.54493 0.15625,-0.15625 c 40.76667,25.19414 134.00968,-13.32568 212.50195,-91.75 1.56171,-1.56174 3.08728,-3.13504 4.61133,-4.70899 -12.17386,-29.46111 -33.2809,-61.85548 -60.30664,-92.55664 z"
       transform="matrix(0.26458333,0,0,0.26458333,0,131.6354)"
       id="path4793"
       inkscape:connector-curvature="0"
       sodipodi:nodetypes="cccccccccccccccccccc"
       inkscape:export-xdpi="96"
       inkscape:export-ydpi="96" />
    <ellipse
       style="opacity:1;fill:#002255;fill-opacity:1;stroke:none;stroke-width:2;stroke-linecap:round;stroke-linejoin:round;stroke-miterlimit:4;stroke-dasharray:none;stroke-dashoffset:0;stroke-opacity:1;paint-order:normal;filter:url(#filter4979)"
       id="path4909"
       cx="112.05321"
       cy="181.78143"
       rx="54.443932"
       ry="4.4314828"
       transform="matrix(0.80706659,0,0,0.80706659,40.73559,127.85304)"
       inkscape:export-xdpi="96"
       inkscape:export-ydpi="96" />
    <path
       inkscape:connector-curvature="0"
       d=""
       cx="198.01227"
       cy="140.34344"
       r="120.49665"
       id="path912"
       style="opacity:1;fill:url(#radialGradient963);fill-opacity:1;stroke:#282828;stroke-width:0;stroke-linecap:square;stroke-linejoin:round;stroke-miterlimit:4;stroke-dasharray:none;stroke-opacity:1" />
    <path
       style="font-style:normal;font-variant:normal;font-weight:normal;font-stretch:normal;font-size:medium;line-height:100%;font-family:'Euphoria Script';-inkscape-font-specification:'Euphoria Script';letter-spacing:0px;word-spacing:0px;fill:#002255;fill-opacity:1;stroke:none;stroke-width:0.47056508px;stroke-linecap:butt;stroke-linejoin:miter;stroke-opacity:1"
       d="M 124.54102 162.19336 C 121.1192 162.19336 118.10547 164.46346 118.10547 168.05469 C 118.10547 171.23936 120.33982 172.76479 122.98242 173.88281 C 125.11682 174.8314 128.64062 175.57524 128.64062 179.4375 C 128.64062 182.18174 127.01437 183.94336 124.33789 183.94336 C 121.15322 183.94336 118.78245 182.18289 118.03711 178.79492 C 117.63056 178.65924 117.59593 178.72716 117.29102 178.89648 C 117.42651 181.50519 117.56219 182.3848 117.96875 184.04492 C 120.10314 184.04492 121.01794 184.82422 124.0332 184.82422 C 125.59165 184.82422 127.04859 184.45169 128.23438 183.74023 C 130.16549 182.52058 131.41992 180.42023 131.41992 178.25195 C 131.41992 175.03342 129.21733 173.50924 126.74414 172.45898 C 125.11793 171.78139 120.44141 170.46079 120.44141 167.14062 C 120.44141 165.24338 122.23812 163.00586 124.20312 163.00586 C 127.52331 163.00586 128.91225 165.4456 129.58984 167.68164 C 129.96251 167.68164 130.03102 167.71587 130.33594 167.47852 C 130.23431 165.85234 130.09727 164.90304 129.72461 163.10742 C 127.75959 162.83643 127.86119 162.19336 124.54102 162.19336 z M 145.05078 162.19336 C 138.34266 162.19336 134.04102 167.44508 134.04102 173.81445 C 134.04102 179.81105 137.39561 184.82422 144.67969 184.82422 C 147.96599 184.82422 151.31924 183.26722 153.62305 180.25195 C 153.45365 179.94695 153.21642 179.74219 152.84375 179.74219 C 150.43831 182.3848 148.13516 183.43555 144.98438 183.43555 C 139.73307 183.43555 137.08984 178.1163 137.08984 173.16992 C 137.08984 167.64754 140.61401 163.10742 144.88281 163.10742 C 149.55816 163.10742 151.55663 166.22503 152.4375 169.13867 C 152.74239 169.16891 152.94576 169.13807 153.2168 168.96875 C 153.0474 167.20704 152.8095 165.58209 152.4707 163.71875 C 150.74286 163.54943 149.21795 162.19336 145.05078 162.19336 z M 168.13672 162.19336 C 167.62853 162.49837 166.81544 162.87109 166.375 162.87109 L 158.51562 181.36914 C 157.63476 183.43579 156.61765 183.77532 155.12695 183.87695 C 154.92369 184.08029 154.92369 184.45295 155.12695 184.65625 C 156.38049 184.62223 157.15916 184.48633 158.48047 184.48633 C 159.86952 184.48633 160.88708 184.62223 162.14062 184.65625 C 162.34389 184.45291 162.34389 184.08022 162.14062 183.87695 C 160.8532 183.8093 159.26066 183.57124 159.80273 182.14844 L 161.83594 176.89648 C 162.00534 176.45609 162.20837 176.15234 163.02148 176.15234 L 170.10156 176.15234 L 172.23633 182.38477 C 172.71064 183.77382 171.35473 183.77532 169.72852 183.87695 C 169.52525 184.08029 169.52525 184.45295 169.72852 184.65625 C 170.98206 184.62223 172.84667 184.48633 174.16797 184.48633 C 175.55702 184.48633 177.01209 184.62223 178.26562 184.65625 C 178.46889 184.45291 178.46889 184.08022 178.26562 183.87695 C 176.94433 183.77528 175.82663 183.64015 175.2168 181.91211 L 168.13672 162.19336 z M 188.13281 162.29492 C 187.25194 162.29492 184.88057 162.63477 183.52539 162.63477 C 181.83142 162.63477 180.88343 162.49886 179.18945 162.46484 C 178.98619 162.66818 178.98619 163.04088 179.18945 163.24414 C 181.56101 163.34581 182.06769 163.51413 182.10156 166.32617 C 182.13558 169.13818 182.16992 170.79936 182.16992 173.61133 C 182.16992 176.42333 182.16933 177.981 182.10156 180.79297 C 182.0338 183.63884 181.56101 183.77532 179.18945 183.87695 C 178.98619 184.08029 178.98619 184.45295 179.18945 184.65625 C 180.84954 184.62223 181.86591 184.48633 183.59375 184.48633 C 185.491 184.48633 186.71033 184.62223 188.4043 184.65625 C 188.60756 184.45291 188.60756 184.08022 188.4043 183.87695 C 186.06662 183.74127 184.94795 183.57232 184.91406 181.60742 C 184.88005 179.06645 184.8457 176.89634 184.8457 174.45703 C 185.59105 174.69401 186.57466 174.76367 187.72656 174.76367 C 193.89261 174.76367 195.6543 170.90126 195.6543 168.02148 C 195.6543 166.02261 194.4005 162.29492 188.13281 162.29492 z M 214.10547 162.39648 C 213.52952 162.49815 213.22327 162.63477 212.41016 162.63477 L 202.51758 162.63477 C 201.5012 162.63477 199.80724 162.49848 198.11328 162.46484 C 197.91002 162.66818 197.91002 163.04084 198.11328 163.24414 C 200.48484 163.34581 200.92571 163.51417 201.02734 166.32617 C 201.09511 169.10428 201.0957 170.79932 201.0957 173.61133 C 201.0957 176.4233 201.09511 178.01483 201.02734 180.79297 C 200.92571 183.60498 200.48484 183.77528 198.11328 183.87695 C 197.91002 184.08029 197.91002 184.45299 198.11328 184.65625 C 199.77337 184.62223 201.56955 184.48633 202.58594 184.48633 L 210.10742 184.48633 C 211.73364 184.48633 214.44336 184.65625 214.44336 184.65625 C 214.91767 182.96227 215.39303 180.62433 215.66406 178.89648 C 215.32527 178.69315 215.29005 178.62489 214.84961 178.72656 C 214.17202 181.16587 212.95178 183.60547 210.37695 183.60547 L 205.0918 183.60547 C 204.34645 183.60547 203.87372 183.0632 203.83984 182.14844 C 203.73821 179.3026 203.77148 173.37305 203.77148 173.37305 L 207.73438 173.4082 C 210.61412 173.44222 210.74992 174.15315 210.85156 175.67773 C 211.05483 175.88107 211.39438 175.88107 211.59766 175.67773 C 211.56364 174.49195 211.46289 174.08541 211.46289 173.03516 C 211.46289 171.91713 211.56379 171.13748 211.59766 170.12109 C 211.39439 169.91776 211.05484 169.91776 210.85156 170.12109 C 210.74993 171.98448 210.61411 172.39062 207.73438 172.39062 L 203.77148 172.42578 C 203.77148 172.42578 203.73806 167.81713 203.83984 165.03906 C 203.87386 164.22593 204.2787 163.54883 205.0918 163.54883 L 210.37695 163.54883 C 212.9179 163.54883 213.42654 165.34397 214.17188 167.68164 C 214.57843 167.74929 214.64753 167.68299 214.98633 167.51367 C 214.81693 166.12462 214.30799 162.76908 214.24023 162.49805 C 214.24023 162.43039 214.20695 162.39648 214.10547 162.39648 z M 59.650391 162.46484 C 59.447128 162.66818 59.447128 163.04088 59.650391 163.24414 C 62.021946 163.44748 62.565057 163.51413 62.632812 166.32617 C 62.700579 169.13818 62.734375 170.79936 62.734375 173.61133 C 62.734375 176.42333 62.700428 177.981 62.632812 180.79297 C 62.565046 183.60494 62.021946 183.77532 59.650391 183.87695 C 59.447128 184.08029 59.447128 184.45295 59.650391 184.65625 C 60.971687 184.5886 63.038301 184.48633 64.054688 184.48633 C 65.071067 184.48633 67.036726 184.55458 68.425781 184.65625 C 68.629044 184.45291 68.629044 184.08022 68.425781 183.87695 C 66.05423 183.77528 65.579474 183.60498 65.511719 180.79297 C 65.443952 178.01483 65.410156 176.45654 65.410156 173.64453 C 65.410156 170.83256 65.410087 169.17204 65.511719 166.32617 C 65.579486 163.51417 66.05423 163.41354 68.425781 163.24414 C 68.629044 163.0408 68.629044 162.66814 68.425781 162.46484 C 67.172244 162.5325 65.071067 162.63477 64.054688 162.63477 C 63.038301 162.63477 60.734529 162.5325 59.650391 162.46484 z M 85.878906 162.46484 C 85.675643 162.66818 85.675643 163.04084 85.878906 163.24414 C 88.250473 163.48112 88.826172 163.61618 88.826172 166.69922 L 88.861328 178.45508 C 88.861328 179.09881 88.690275 179.47266 88.453125 179.47266 C 88.182095 179.47266 87.810632 178.86289 86.828125 177.60938 L 75.207031 162.63477 L 70.835938 162.56641 C 70.632675 162.76974 70.632675 163.1424 70.835938 163.3457 C 72.462143 163.44737 73.30896 164.53223 73.681641 165.85352 L 73.648438 180.41992 C 73.648438 183.43519 73.072735 183.63983 70.701172 183.87695 C 70.497909 184.08029 70.497909 184.45295 70.701172 184.65625 C 72.361258 184.62223 72.936443 184.48633 74.359375 184.48633 C 75.782318 184.48633 76.290406 184.62223 77.984375 184.65625 C 78.187638 184.45291 78.187638 184.08025 77.984375 183.87695 C 75.612824 183.63998 75.037109 183.50292 75.037109 180.41992 L 75.003906 169.61328 C 75.003906 168.46143 75.172322 167.95312 75.443359 167.95312 C 75.646622 167.95312 76.01976 168.32495 76.595703 169.07031 L 88.419922 184.01172 C 88.792583 184.51988 89.233327 184.82422 89.775391 184.82422 C 90.249706 184.82422 90.181641 184.41912 90.181641 183.77539 L 90.214844 166.69922 C 90.214844 163.68395 90.792503 163.48131 93.164062 163.24414 C 93.367325 163.0408 93.367325 162.66811 93.164062 162.46484 C 91.503973 162.49508 90.926838 162.63477 89.503906 162.63477 C 88.080975 162.63477 87.572879 162.49886 85.878906 162.46484 z M 95.152344 162.46484 C 94.949081 162.66818 94.949081 163.04088 95.152344 163.24414 C 97.523899 163.34581 97.998651 163.51413 98.066406 166.32617 C 98.134173 169.13818 98.201172 170.79936 98.201172 173.61133 C 98.201172 176.42333 98.134173 177.981 98.066406 180.79297 C 97.998639 183.60494 97.523899 183.77532 95.152344 183.87695 C 94.949081 184.08029 94.949081 184.45295 95.152344 184.65625 C 96.812433 184.62223 97.828792 184.48633 99.556641 184.48633 C 101.25061 184.48633 102.23182 184.62223 103.92578 184.65625 C 104.12904 184.45291 104.12904 184.08022 103.92578 183.87695 C 101.55423 183.77528 101.04627 183.60498 100.97852 180.79297 C 100.91075 178.08263 100.87695 176.52413 100.87695 173.84766 C 102.06272 173.88167 103.24947 174.42383 103.96094 175.30469 L 109.2793 182.01367 C 109.95689 182.89453 110.43224 183.91107 110.5 184.45312 C 110.5 184.55479 110.53259 184.65625 110.66797 184.65625 C 111.34556 184.62223 111.27854 184.48633 112.29492 184.48633 C 113.61621 184.48633 114.46235 184.62223 116.05469 184.65625 C 116.25795 184.45291 116.25795 184.08022 116.05469 183.87695 C 115.44486 183.77528 113.88627 183.43663 112.73438 182.01367 L 105.31641 173.20508 C 105.04538 172.90007 104.875 172.62845 104.875 172.35742 C 104.875 172.12045 104.90878 171.88305 106.06055 170.69727 L 111.04102 165.58203 C 112.59947 163.92199 114.29326 163.41354 115.64844 163.24414 C 115.8517 163.0408 115.8517 162.66814 115.64844 162.46484 C 114.0561 162.49886 113.44698 162.63477 112.0918 162.63477 C 110.73661 162.63477 109.68608 162.49886 108.09375 162.46484 C 107.89049 162.66818 107.89049 163.04088 108.09375 163.24414 C 109.3134 163.34581 110.76992 163.92076 109.38086 165.44531 L 103.96094 171.4082 C 103.24947 172.18743 102.13049 172.79876 100.87695 172.90039 C 100.87695 170.52885 100.9109 168.90101 100.97852 166.32617 C 101.04628 163.51417 101.55423 163.34581 103.92578 163.24414 C 104.12904 163.0408 104.12904 162.66814 103.92578 162.46484 C 102.26569 162.49886 101.21613 162.63477 99.488281 162.63477 C 97.794312 162.63477 96.846317 162.49886 95.152344 162.46484 z M 187.92969 163.10742 C 190.26736 163.10742 192.67188 164.32817 192.67188 168.63086 C 192.67188 172.28982 190.80973 173.94922 187.52344 173.94922 C 186.71033 173.94922 185.28614 173.88292 184.8457 173.78125 L 184.8457 173.61133 C 184.8457 170.79936 184.88031 167.54634 184.91406 164.73438 C 184.94808 163.75185 185.49037 163.10742 187.92969 163.10742 z M 166.3418 165.68359 L 166.44336 165.68359 L 169.69531 175.06836 L 163.63086 175.06836 C 162.88551 175.06836 162.64768 174.7959 162.7832 174.45703 L 166.3418 165.68359 z M 150.71094 196.36523 C 150.42513 196.36523 149.98302 196.64384 149.38281 197.20117 C 149.15417 197.41567 148.73168 197.60991 148.11719 197.78125 C 147.5027 197.95259 146.76039 198.03711 145.88867 198.03711 C 145.03125 198.03711 144.22419 198.10909 143.4668 198.25195 C 141.25177 198.69496 139.72205 199.69428 138.87891 201.25195 C 138.50735 201.9236 138.32227 202.50239 138.32227 202.98828 C 138.32227 203.45987 138.37787 203.86079 138.49219 204.18945 C 138.73512 204.90399 139.15042 205.26172 139.73633 205.26172 C 140.02213 205.26172 140.18563 205.161 140.22852 204.96094 C 139.62873 204.88953 139.32854 204.32363 139.32812 203.26758 C 139.32857 202.49656 139.59475 201.73334 140.12305 200.97656 C 141.22341 199.36175 143.1449 198.55469 145.88867 198.55469 C 146.37454 198.55469 146.73228 198.54637 146.96094 198.53125 C 146.51793 198.98855 146.13142 199.66085 145.80273 200.54688 C 145.47406 201.41861 145.13071 202.55461 144.77344 203.95508 C 143.95889 204.02639 143.3585 204.0625 142.97266 204.0625 C 142.6011 204.0625 142.38005 204.01952 142.30859 203.93359 C 142.13703 203.97645 142.0579 204.13995 142.07227 204.42578 C 142.12943 204.78302 142.35963 204.96094 142.75977 204.96094 C 143.17419 204.96094 143.77981 204.89804 144.58008 204.76953 C 144.52292 204.99819 144.36661 205.68297 144.10938 206.82617 C 143.85215 207.95512 143.53757 209.18464 143.16602 210.51367 C 142.85163 211.59976 142.57303 212.35646 142.33008 212.78516 C 142.08714 213.19959 141.77256 213.7156 141.38672 214.33008 C 141.01517 214.95874 140.59463 215.38645 140.12305 215.61523 C 139.66575 215.85813 139.22887 215.98047 138.81445 215.98047 C 138.40003 215.98047 138.06387 215.94461 137.80664 215.87305 C 136.72057 215.53009 136.17773 214.58635 136.17773 213.04297 C 136.17773 211.98548 136.49231 210.96454 137.12109 209.97852 C 137.92136 208.70663 138.93703 208.07031 140.16602 208.07031 C 140.12316 207.89902 140.03683 207.76952 139.9082 207.68359 C 139.79388 207.59767 139.64281 207.55469 139.45703 207.55469 C 138.1566 207.55469 137.10691 208.32054 136.30664 209.84961 C 135.77789 210.84995 135.51367 211.84927 135.51367 212.84961 C 135.51367 213.37834 135.5928 213.90677 135.75 214.43555 C 136.16442 215.96462 137.20692 216.73047 138.87891 216.73047 C 141.20826 216.73047 143.0022 214.99409 144.25977 211.52148 C 144.75993 210.14959 145.34592 207.80561 146.01758 204.49023 C 146.9036 204.34737 147.46801 204.27539 147.71094 204.27539 C 147.95387 204.26103 148.10298 204.16743 148.16016 203.99609 C 148.17447 203.83887 148.11691 203.76172 147.98828 203.76172 C 147.50241 203.76172 146.88959 203.79588 146.14648 203.86719 C 146.48945 202.18091 146.81647 200.89576 147.13086 200.00977 C 147.44525 199.10948 147.83896 198.55944 148.31055 198.35938 C 148.88217 198.24503 149.39622 198.08678 149.85352 197.88672 C 150.61092 197.52945 151.04059 197.15208 151.14062 196.75195 L 151.14062 196.62305 C 151.14062 196.45171 150.99675 196.36523 150.71094 196.36523 z M 89.65625 197.65039 L 88.476562 197.71484 C 86.190087 197.95777 84.40333 198.85117 83.117188 200.39453 C 82.345504 201.30913 81.960938 202.13775 81.960938 202.88086 C 81.960938 203.62399 82.225158 203.99609 82.753906 203.99609 C 83.02542 203.99609 83.203318 203.85419 83.289062 203.56836 C 83.160433 203.56836 83.095703 203.41728 83.095703 203.11719 C 83.095703 202.37408 83.410283 201.57425 84.039062 200.7168 C 85.282338 199.04483 87.148222 198.20898 89.634766 198.20898 C 91.621147 198.20898 93.078931 198.93167 94.007812 200.375 C 94.708043 201.4468 95.056641 202.76069 95.056641 204.31836 C 95.056641 205.01861 94.986667 205.76091 94.84375 206.54688 C 94.42933 208.97623 93.507169 211.09196 92.078125 212.89258 C 90.49188 214.89326 88.719519 215.89453 86.761719 215.89453 C 85.032572 215.89453 83.939722 215.40734 83.482422 214.43555 C 83.339505 214.12119 83.267578 213.7778 83.267578 213.40625 C 83.267578 213.0347 83.382692 212.62856 83.611328 212.18555 C 83.968597 211.55676 84.389129 211.24219 84.875 211.24219 C 84.946483 211.24219 84.996843 211.1992 85.025391 211.11328 C 85.068301 211.02761 85.075423 210.94851 85.046875 210.87695 C 85.032588 210.79103 84.989402 210.74805 84.917969 210.74805 C 84.103413 210.74805 83.459868 211.2065 82.988281 212.12109 C 82.745333 212.62125 82.625 213.09934 82.625 213.55664 C 82.625 213.99965 82.716567 214.42019 82.902344 214.82031 C 83.516832 216.09217 84.960238 216.72852 87.232422 216.72852 C 89.518905 216.72852 91.51952 215.75076 93.234375 213.79297 C 94.792037 212.02092 95.778932 209.86206 96.193359 207.31836 C 96.307677 206.56097 96.365234 205.84026 96.365234 205.1543 C 96.365234 203.49662 96.014689 202.0316 95.314453 200.75977 C 94.142633 198.68763 92.257119 197.65039 89.65625 197.65039 z M 180.13867 197.65234 C 179.62422 197.65234 179.01664 198.43781 178.31641 200.00977 C 177.63046 201.58172 177.03008 203.56077 176.51562 205.94727 C 176.00116 208.33379 175.74414 210.39913 175.74414 212.14258 C 175.74414 213.886 175.93837 215.19272 176.32422 216.06445 C 176.72435 216.93619 177.33717 217.37305 178.16602 217.37305 C 178.75192 217.37305 179.26073 217.03691 179.68945 216.36523 C 179.88951 216.06509 180.02424 215.84208 180.0957 215.69922 C 180.18147 215.55635 180.23903 215.43597 180.26758 215.33594 C 180.31046 215.25002 180.29604 215.19253 180.22461 215.16406 C 180.03882 215.09276 179.90932 215.13574 179.83789 215.29297 C 179.70928 215.59306 179.49541 215.89326 179.19531 216.19336 C 178.89522 216.50774 178.58064 216.66406 178.25195 216.66406 C 177.8661 216.66406 177.55871 216.35862 177.33008 215.74414 C 177.11573 215.14395 177.00977 214.28656 177.00977 213.17188 C 177.00977 212.04293 177.1301 210.6911 177.37305 209.11914 C 177.63028 207.54718 177.90889 206.17574 178.20898 205.00391 C 178.52338 203.8321 178.90989 202.55937 179.36719 201.1875 C 179.82448 199.80132 180.2038 198.76604 180.50391 198.08008 C 180.50391 197.79427 180.38162 197.65234 180.13867 197.65234 z M 89.484375 199.13086 C 88.955629 199.13086 88.405605 199.73124 87.833984 200.93164 C 87.276655 202.11773 86.803813 203.73902 86.417969 205.79688 C 86.032124 207.84039 85.839844 209.94892 85.839844 212.12109 C 85.839844 213.26433 86.053703 213.83594 86.482422 213.83594 C 86.682485 213.83594 86.783203 213.74234 86.783203 213.55664 C 86.783203 211.75602 87.232511 208.83326 88.132812 204.78906 C 88.618683 202.57403 89.1831 200.80362 89.826172 199.47461 C 89.826172 199.24582 89.713011 199.13086 89.484375 199.13086 z M 126.81055 202.17383 C 126.59619 202.17383 126.39671 202.2603 126.21094 202.43164 C 126.02516 202.60308 125.93164 202.79534 125.93164 203.00977 C 125.93164 203.20983 126.06113 203.5172 126.31836 203.93164 C 126.57559 204.34605 126.90979 204.70381 127.32422 205.00391 L 127.32422 205.13281 C 127.32422 206.46182 127.13194 207.8117 126.74609 209.18359 C 126.37454 210.54117 125.90365 211.64841 125.33203 212.50586 C 124.7747 213.349 124.23907 213.77148 123.72461 213.77148 C 123.26732 213.77148 123.03711 213.37779 123.03711 212.5918 C 123.03711 210.90552 123.47399 208.56874 124.3457 205.58203 C 124.3457 205.28194 124.18744 205.13281 123.87305 205.13281 C 123.55866 205.13281 123.20287 205.53373 122.80273 206.33398 L 121.88086 208.11133 C 121.28066 209.31173 120.57956 210.51249 119.7793 211.71289 C 118.99332 212.91329 118.41453 213.51367 118.04297 213.51367 C 117.74287 213.51367 117.59375 213.17751 117.59375 212.50586 C 117.59375 211.8199 117.80042 210.76302 118.21484 209.33398 C 118.64356 207.90495 118.98691 206.86964 119.24414 206.22656 C 119.50136 205.56918 119.71523 205.03353 119.88672 204.61914 C 119.88672 204.31902 119.75199 204.16797 119.48047 204.16797 C 118.90885 204.23943 118.27969 205.02489 117.59375 206.52539 C 116.77919 208.41173 116.37109 210.1841 116.37109 211.8418 C 116.37109 213.44233 116.84394 214.24219 117.78711 214.24219 C 118.74457 214.24219 120.10884 212.65686 121.88086 209.48438 C 121.80943 210.15602 121.77344 210.78517 121.77344 211.37109 C 121.77344 212.39998 121.95133 213.19265 122.30859 213.75 C 122.65156 214.25016 123.14599 214.5 123.78906 214.5 C 124.43213 214.5 125.08092 214.02911 125.73828 213.08594 C 126.39564 212.12848 126.93129 210.94929 127.3457 209.54883 C 127.76016 208.13408 127.98317 206.75543 128.01172 205.41211 C 128.36899 205.55498 128.69795 205.625 128.99805 205.625 C 129.31243 205.625 129.54787 205.54785 129.70508 205.39062 C 129.87657 205.21929 129.96094 205.03947 129.96094 204.85352 C 129.80374 204.95355 129.53233 205.00391 129.14648 205.00391 C 128.77493 205.00391 128.38317 204.84758 127.96875 204.5332 C 127.89729 203.91873 127.75341 203.37393 127.53906 202.90234 C 127.3247 202.41647 127.08207 202.17383 126.81055 202.17383 z M 149.81055 202.58203 C 149.26751 202.58203 148.83258 203.03133 148.50391 203.93164 C 148.17522 204.81766 148.00977 205.98965 148.00977 207.44727 C 148.00977 207.54755 148.06732 207.62665 148.18164 207.68359 C 148.31024 207.74079 148.43973 207.76953 148.56836 207.76953 C 148.69699 207.76953 148.76172 207.73367 148.76172 207.66211 C 148.76172 207.09047 148.81732 206.54045 148.93164 206.01172 C 149.21745 204.73988 149.6831 203.78177 150.32617 203.13867 C 150.32617 202.96721 150.27579 202.83245 150.17578 202.73242 C 150.07575 202.63239 149.95346 202.58203 149.81055 202.58203 z M 105.61523 203.13867 C 104.95787 203.13867 104.228 203.56833 103.42773 204.42578 C 102.02727 205.92625 100.74932 208.01124 99.591797 210.68359 L 99.441406 210.68359 C 99.727217 208.49714 100.19811 206.36179 100.85547 204.27539 C 100.85547 203.96098 100.72074 203.80273 100.44922 203.80273 C 99.834726 203.80273 99.313477 204.66733 98.884766 206.39648 C 98.456051 208.12562 98.240234 210.05626 98.240234 212.18555 C 98.240234 213.31449 98.448859 213.87891 98.863281 213.87891 C 99.091943 213.87891 99.205078 213.79243 99.205078 213.62109 C 99.205078 212.92087 99.805459 211.42711 101.00586 209.14062 C 102.20626 206.83985 103.29192 205.26889 104.26367 204.42578 C 104.00644 205.01166 103.87891 205.63887 103.87891 206.31055 C 103.87891 207.49666 104.15032 208.08984 104.69336 208.08984 L 104.69336 208.0918 C 104.76479 208.0918 104.80078 208.03432 104.80078 207.91992 C 104.80078 207.0339 104.92111 206.21967 105.16406 205.47656 C 105.40699 204.71915 105.60122 204.23913 105.74414 204.03906 C 105.88706 203.839 106.00739 203.68988 106.10742 203.58984 C 106.10742 203.46134 106.05706 203.3535 105.95703 203.26758 C 105.87129 203.18166 105.75815 203.13867 105.61523 203.13867 z M 157.89648 203.13867 C 157.23912 203.13867 156.50925 203.56833 155.70898 204.42578 C 154.30852 205.92625 153.03058 208.01124 151.87305 210.68359 L 151.72266 210.68359 C 152.00847 208.49714 152.47936 206.36179 153.13672 204.27539 C 153.13672 203.96098 153.00199 203.80273 152.73047 203.80273 C 152.11598 203.80273 151.59277 204.66733 151.16406 206.39648 C 150.73534 208.12562 150.52148 210.05626 150.52148 212.18555 C 150.52148 213.31449 150.72815 213.87891 151.14258 213.87891 C 151.37121 213.87891 151.48633 213.79243 151.48633 213.62109 C 151.48633 212.92087 152.08671 211.42711 153.28711 209.14062 C 154.48751 206.83985 155.57317 205.26889 156.54492 204.42578 C 156.28769 205.01166 156.16016 205.63887 156.16016 206.31055 C 156.16016 207.49666 156.43157 208.08984 156.97461 208.08984 L 156.97461 208.0918 C 157.04604 208.0918 157.08203 208.03432 157.08203 207.91992 C 157.08203 207.0339 157.20236 206.21967 157.44531 205.47656 C 157.68824 204.71915 157.88052 204.23913 158.02344 204.03906 C 158.16635 203.839 158.28864 203.68988 158.38867 203.58984 C 158.38867 203.46134 158.33831 203.3535 158.23828 203.26758 C 158.15254 203.18166 158.0394 203.13867 157.89648 203.13867 z M 111.4082 203.6543 C 110.95091 203.6543 110.45843 203.79622 109.92969 204.08203 C 108.7007 204.7537 107.70662 206.01199 106.94922 207.85547 C 106.40618 209.17016 106.13477 210.37619 106.13477 211.47656 C 106.13477 213.32004 106.72076 214.24219 107.89258 214.24219 C 108.80717 214.24219 110.17338 212.69282 111.98828 209.5918 L 112.20117 209.5918 C 112.04397 210.57785 111.9668 211.60594 111.9668 212.67773 C 111.9668 213.74951 112.12311 214.67885 112.4375 215.46484 C 112.76618 216.25081 113.22988 216.64258 113.83008 216.64258 C 114.08732 216.64258 114.33191 216.49345 114.56055 216.19336 C 114.80348 215.89319 114.95979 215.65054 115.03125 215.46484 C 115.10273 215.29335 115.15309 215.15667 115.18164 215.05664 C 115.21019 214.95661 115.21019 214.88658 115.18164 214.84375 C 115.15307 214.80066 115.10991 214.7793 115.05273 214.7793 C 114.89551 214.7793 114.79479 214.85644 114.75195 215.01367 C 114.63764 215.31382 114.5101 215.53682 114.36719 215.67969 C 114.22428 215.83692 114.06602 215.91406 113.89453 215.91406 C 113.45153 215.91406 113.23047 215.17896 113.23047 213.70703 C 113.23047 212.23511 113.39593 210.75572 113.72461 209.26953 C 114.0533 207.7833 114.31752 206.78922 114.51758 206.28906 C 114.71765 205.78888 114.88116 205.40431 115.00977 205.13281 C 115.00977 204.80414 114.87503 204.63867 114.60352 204.63867 C 114.08906 204.63867 113.58744 205.15471 113.10156 206.18359 C 112.51565 207.34114 111.75177 208.70539 110.80859 210.27734 C 110.26556 211.19194 109.74431 211.95584 109.24414 212.57031 C 108.75827 213.17053 108.37894 213.4707 108.10742 213.4707 C 107.76444 213.4707 107.59375 213.043 107.59375 212.18555 C 107.59375 210.48499 108.02148 208.66943 108.87891 206.74023 C 109.63631 205.06822 110.47932 204.23242 111.4082 204.23242 C 111.60826 204.23242 111.78811 204.3044 111.94531 204.44727 C 112.10249 204.57577 112.20126 204.68166 112.24414 204.76758 C 112.28703 204.83889 112.32301 204.93248 112.35156 205.04688 C 112.39444 205.14691 112.53113 205.19727 112.75977 205.19727 C 112.95983 205.19727 113.08016 205.07493 113.12305 204.83203 L 112.99414 204.55469 C 112.92269 204.35462 112.75199 204.15319 112.48047 203.95312 C 112.22324 203.75306 111.8655 203.6543 111.4082 203.6543 z M 163.99023 203.8457 C 163.29 203.8457 162.60329 204.04714 161.93164 204.44727 C 160.70265 205.20466 159.7393 206.43942 159.03906 208.1543 C 158.59606 209.28324 158.37305 210.3277 158.37305 211.28516 C 158.37305 211.79963 158.43778 212.29929 158.56641 212.78516 C 158.98082 214.2142 159.94614 214.92773 161.46094 214.92773 C 161.84678 214.92773 162.22415 214.83609 162.5957 214.65039 C 162.98155 214.47895 163.28894 214.28474 163.51758 214.07031 C 163.76051 213.84168 164.01754 213.54147 164.28906 213.16992 C 164.57486 212.79842 164.74032 212.53418 164.7832 212.37695 C 164.79749 212.29103 164.6752 212.24805 164.41797 212.24805 C 164.26079 212.24805 164.15483 212.30553 164.09766 212.41992 C 163.85472 212.83436 163.54733 213.21369 163.17578 213.55664 C 162.99 213.72823 162.76176 213.87736 162.49023 214.00586 C 162.21873 214.12025 161.95974 214.17773 161.7168 214.17773 C 161.47387 214.17773 161.27439 214.14899 161.11719 214.0918 C 160.30263 213.80601 159.89648 212.9486 159.89648 211.51953 C 159.89648 209.83323 160.3314 208.19037 161.20312 206.58984 C 162.01768 205.11794 162.89667 204.38281 163.83984 204.38281 C 164.31143 204.38281 164.54687 204.67582 164.54688 205.26172 C 164.54688 206.04768 164.20352 206.91228 163.51758 207.85547 C 162.67444 209.02727 161.74705 209.61328 160.73242 209.61328 C 160.80385 209.75615 160.90982 209.86203 161.05273 209.93359 C 161.19562 210.00515 161.37547 210.04102 161.58984 210.04102 C 162.96173 210.04102 164.06178 209.37591 164.89062 208.04688 C 165.3765 207.24662 165.61914 206.48273 165.61914 205.75391 C 165.61914 204.48204 165.07631 203.8457 163.99023 203.8457 z M 172.31055 203.8457 C 171.61031 203.8457 170.92556 204.04714 170.25391 204.44727 C 169.02492 205.20466 168.05961 206.43942 167.35938 208.1543 C 166.91636 209.28324 166.69531 210.3277 166.69531 211.28516 C 166.69531 211.79963 166.75809 212.29929 166.88672 212.78516 C 167.30115 214.2142 168.26647 214.92773 169.78125 214.92773 C 170.16709 214.92773 170.54641 214.83609 170.91797 214.65039 C 171.30382 214.47895 171.61121 214.28474 171.83984 214.07031 C 172.08278 213.84168 172.3398 213.54147 172.61133 213.16992 C 172.89712 212.79842 173.06063 212.53418 173.10352 212.37695 C 173.1178 212.29103 172.99746 212.24805 172.74023 212.24805 C 172.58306 212.24805 172.47514 212.30553 172.41797 212.41992 C 172.17503 212.83436 171.86765 213.21369 171.49609 213.55664 C 171.31032 213.72823 171.08206 213.87736 170.81055 214.00586 C 170.53903 214.12025 170.28201 214.17773 170.03906 214.17773 C 169.79613 214.17773 169.59666 214.14899 169.43945 214.0918 C 168.62489 213.80601 168.2168 212.9486 168.2168 211.51953 C 168.2168 209.83323 168.65172 208.19037 169.52344 206.58984 C 170.338 205.11794 171.21699 204.38281 172.16016 204.38281 C 172.63174 204.38281 172.86914 204.67582 172.86914 205.26172 C 172.86914 206.04768 172.52579 206.91228 171.83984 207.85547 C 170.9967 209.02727 170.06736 209.61328 169.05273 209.61328 C 169.12417 209.75615 169.23208 209.86203 169.375 209.93359 C 169.51791 210.00515 169.69581 210.04102 169.91016 210.04102 C 171.28204 210.04102 172.38209 209.37591 173.21094 208.04688 C 173.69682 207.24662 173.93945 206.48273 173.93945 205.75391 C 173.93945 204.48204 173.39662 203.8457 172.31055 203.8457 z M 183.9043 203.8457 L 183.77539 203.86719 C 183.18948 203.99579 182.53874 204.91074 181.82422 206.61133 C 181.1097 208.29758 180.75391 209.97642 180.75391 211.64844 C 180.75391 213.32042 181.29674 214.15625 182.38281 214.15625 C 183.35457 214.15625 184.76919 212.50617 186.62695 209.20508 L 186.82031 209.20508 C 186.63455 210.10534 186.46909 211.03471 186.32617 211.99219 C 186.18327 212.94967 186.03416 213.78547 185.87695 214.5 C 184.305 214.55715 182.96755 214.90771 181.86719 215.55078 C 180.76682 216.20812 179.90942 217.00081 179.29492 217.92969 C 179.25206 218.01536 179.28083 218.08733 179.38086 218.14453 C 179.56663 218.2302 179.70332 218.20858 179.78906 218.08008 C 181.17524 216.16492 183.16147 215.17804 185.74805 215.12109 C 185.40508 216.72162 184.9198 218.05906 184.29102 219.13086 C 183.5622 220.34555 182.55372 220.95117 181.26758 220.95117 C 180.3244 220.95117 179.72402 220.65817 179.4668 220.07227 C 179.39536 219.95712 179.2894 219.90676 179.14648 219.92188 C 178.98928 219.95035 178.91016 220.00783 178.91016 220.09375 C 178.91016 220.12247 178.91728 220.15834 178.93164 220.20117 C 179.31748 221.03002 180.09576 221.44336 181.26758 221.44336 C 183.98278 221.44336 185.89182 219.37081 186.99219 215.22656 C 187.33517 215.31238 187.61378 215.44906 187.82812 215.63477 C 188.04248 215.82069 188.1844 215.99858 188.25586 216.16992 C 188.34153 216.34144 188.39189 216.55007 188.40625 216.79297 C 188.42044 217.0502 188.41331 217.22809 188.38477 217.32812 C 188.51338 217.32813 188.66249 217.24165 188.83398 217.07031 C 189.00547 216.91326 189.0918 216.72097 189.0918 216.49219 C 189.0918 216.27771 189.07738 216.10702 189.04883 215.97852 C 188.87734 215.22105 188.24818 214.7482 187.16211 214.5625 C 187.33358 213.77651 187.54221 212.69087 187.78516 211.30469 C 188.02809 209.90422 188.34072 208.51835 188.72656 207.14648 C 189.11241 205.77462 189.44137 204.83807 189.71289 204.33789 C 189.71289 204.0092 189.56377 203.8457 189.26367 203.8457 C 188.79209 203.8457 188.34802 204.28061 187.93359 205.15234 C 186.97614 207.23874 185.84731 209.29692 184.54688 211.32617 C 183.66086 212.71233 183.01928 213.40625 182.61914 213.40625 C 182.27617 213.40625 182.10352 213.01253 182.10352 212.22656 C 182.10352 211.42631 182.30299 210.31905 182.70312 208.9043 C 183.10325 207.47523 183.42502 206.45237 183.66797 205.83789 C 183.9109 205.2091 184.11233 204.70225 184.26953 204.31641 C 184.26953 204.002 184.14724 203.8457 183.9043 203.8457 z M 192.9043 211.88477 C 192.56132 211.88477 192.2971 212.07705 192.11133 212.46289 C 191.92555 212.84873 191.83203 213.21366 191.83203 213.55664 C 191.83203 214.11397 191.9831 214.39258 192.2832 214.39258 L 192.54102 214.0293 C 193.06976 213.25762 193.33398 212.70562 193.33398 212.37695 C 193.33398 212.04826 193.1901 211.88477 192.9043 211.88477 z "
       transform="matrix(0.26458333,0,0,0.26458333,0,131.6354)"
       id="path7108"
       inkscape:export-xdpi="96"
       inkscape:export-ydpi="96" />
    <path
       style="fill:#002255;fill-opacity:1;stroke-width:0.23467733"
       d="m 36.203532,146.55488 c -0.783155,-0.002 -1.55851,0.28293 -2.120515,0.85815 l -9.349966,9.56743 c -3.159065,3.91212 2.149965,3.457 4.425826,4.5838 0.81639,0.83449 -3.129012,1.45063 -2.312624,2.28581 0.816387,0.83448 4.936231,1.60735 5.754012,2.44183 0.816387,0.83448 -1.671127,1.71999 -0.85474,2.55447 0.816387,0.83447 2.704586,0.0439 3.058144,1.97034 0.251947,1.37665 3.402738,0.59163 4.943644,-0.53586 0.816388,-0.83518 -1.56142,-0.75651 -0.745033,-1.59099 2.030181,-2.07612 3.920419,-0.75454 4.615009,-2.83484 0.343119,-1.02796 -2.988516,-1.58491 -2.170736,-2.4194 2.348942,-1.37177 10.467352,-2.26451 6.615089,-6.11678 l -9.691762,-9.90581 c -0.592629,-0.56896 -1.383194,-0.85659 -2.166348,-0.85815 z m 0.08386,0.91032 c 0.559135,0.003 1.116137,0.2123 1.517371,0.61875 l 3.699322,3.75685 c 0.350776,0.35843 0.345957,1.05287 0.149689,1.25262 l -1.83674,-1.4691 -0.361302,2.17561 -1.534436,-0.81037 -2.457438,1.55296 -0.813782,-3.27316 -1.320385,2.28434 H 31.31157 c -0.822654,0 -0.919603,-1.0444 -0.172118,-1.79188 1.305663,-1.40937 2.804083,-2.84548 3.618382,-3.67787 0.409238,-0.41828 0.970424,-0.62171 1.529558,-0.61875 z m -4.441916,14.61688 c 0.24986,0.1552 4.028851,0.92299 4.95242,1.0761 0.320151,0.0676 0.09312,0.3975 -0.348137,0.62021 -0.995255,0.26447 -5.822253,-1.69631 -4.604283,-1.69631 z m 14.693917,2.63004 c -0.760361,0.0261 -1.510086,0.41456 -1.716795,1.1429 0,0.47466 3.497462,0.78568 3.497462,-0.11214 -0.249163,-0.72104 -1.020307,-1.05695 -1.780667,-1.03076 z m -16.178618,2.0586 c -1.05982,0.0563 -2.196934,0.82333 -1.292593,1.60659 0.828218,0.71617 2.107596,-0.17809 2.491082,-1.17752 -0.250773,-0.3332 -0.716754,-0.45467 -1.198489,-0.42907 z m 14.023486,0.0594 c -1.067643,0.95767 0.119344,1.92936 1.171669,1.31063 0.234545,-0.23802 -0.0059,-1.0726 -1.171669,-1.31063 z"
       id="path2313"
       inkscape:connector-curvature="0"
       inkscape:export-xdpi="96"
       inkscape:export-ydpi="96" />
    <path
       style="font-style:normal;font-variant:normal;font-weight:normal;font-stretch:normal;font-size:332.46795654px;line-height:1.25;font-family:'Linux Libertine O';-inkscape-font-specification:'Linux Libertine O';letter-spacing:0px;word-spacing:0px;fill:#002255;fill-opacity:1;stroke:none;stroke-width:0.65252519"
       d="M 199.54688 285.25586 C 178.06946 285.25586 157.67773 310.8537 157.67773 353.80859 C 157.67773 377.02154 164.61888 398.93349 176.55078 410.64844 C 182.84215 416.9398 190.21889 419.75977 198.67969 419.75977 C 215.38435 419.75977 240.76562 402.83917 240.76562 351.85742 C 240.76562 330.37999 235.55919 311.9382 226.01367 299.35547 C 220.15619 291.97934 211.26185 285.25586 199.54688 285.25586 z M 98.138672 285.68945 C 85.989838 293.28249 74.708228 298.48811 55.617188 307.38281 C 55.834208 309.98611 56.92055 311.93857 58.873047 313.24023 C 68.635521 309.11832 73.624171 307.81641 77.746094 307.81641 C 81.217197 307.81641 82.085938 313.02434 82.085938 320.40039 L 82.085938 391.12305 C 82.085938 409.12932 76.227067 410.21436 61.041016 410.86523 C 59.739335 412.16687 59.739335 416.72372 61.041016 418.02539 C 71.671258 417.80807 79.265361 417.58984 91.197266 417.58984 C 101.39363 417.58984 106.81686 417.80882 117.66406 418.02539 C 118.96572 416.72372 118.96572 412.16687 117.66406 410.86523 C 102.47799 410.21436 98.789062 409.12932 98.789062 391.12305 L 98.789062 315.84375 C 98.789062 302.82713 99.007585 289.59372 99.441406 286.77344 C 99.441406 285.90566 98.78951 285.68945 98.138672 285.68945 z M 199.54688 292.84766 C 203.23493 292.84766 206.70526 294.1488 209.30859 296.53516 C 216.03385 302.17572 221.89258 318.66395 221.89258 347.73438 C 221.89258 367.69323 221.2423 381.36163 218.20508 392.42578 C 213.43232 410.21515 202.80145 412.16797 198.89648 412.16797 C 178.72072 412.16797 176.55078 375.0694 176.55078 356.19531 C 176.55078 302.82717 189.78443 292.84766 199.54688 292.84766 z M 142.67188 396.76367 C 136.3805 396.76367 131.17383 401.97035 131.17383 408.26172 C 131.17383 414.55308 136.3805 419.75977 142.67188 419.75977 C 148.96325 419.75977 154.16992 414.55308 154.16992 408.26172 C 154.16992 401.97035 148.96325 396.76367 142.67188 396.76367 z "
       transform="matrix(0.26458333,0,0,0.26458333,0,131.6354)"
       id="path1346"
       inkscape:export-xdpi="96"
       inkscape:export-ydpi="96" />
    <g
       id="g920"
       style="display:none"
       inkscape:label="text"
       transform="matrix(0.26458333,0,0,0.26458333,214.92843,129.7571)">
      <g
         id="g1288"
         transform="translate(609.56806,2)">
        <text
           xml:space="preserve"
           style="font-style:normal;font-weight:normal;font-size:332.46795654px;line-height:1.25;font-family:sans-serif;letter-spacing:0px;word-spacing:0px;fill:#282828;fill-opacity:1;stroke:none;stroke-width:1"
           x="169.83224"
           y="437.82294"
           id="text1286"><tspan
             style="font-style:normal;font-variant:normal;font-weight:normal;font-stretch:normal;font-family:'Linux Libertine O';-inkscape-font-specification:'Linux Libertine O';fill:#282828;fill-opacity:1;stroke-width:1"
             sodipodi:role="line"
             id="tspan1284"
             x="169.83224"
             y="437.82294">1.0</tspan></text>
      </g>
      <text
         id="text1296"
         y="691.18817"
         x="64.731827"
         style="font-style:normal;font-weight:normal;font-size:25.67616844px;line-height:1.25;font-family:sans-serif;letter-spacing:0px;word-spacing:0px;fill:#ffffff;fill-opacity:1;stroke:none;stroke-width:1"
         xml:space="preserve"><tspan
           style="font-style:normal;font-variant:normal;font-weight:normal;font-stretch:normal;font-family:'Linux Libertine O';-inkscape-font-specification:'Linux Libertine O';fill:#ffffff;fill-opacity:1;stroke-width:1"
           y="691.18817"
           x="64.731827"
           id="tspan1294"
           sodipodi:role="line">www.inkscape.org</tspan></text>
      <text
         id="text1300"
         y="657.67053"
         x="718.96075"
         style="font-style:normal;font-weight:normal;font-size:12.80407238px;line-height:1.25;font-family:sans-serif;letter-spacing:0px;word-spacing:0px;fill:#7c7c7c;fill-opacity:1;stroke:none;stroke-width:1"
         xml:space="preserve"><tspan
           style="font-style:normal;font-variant:normal;font-weight:normal;font-stretch:normal;font-family:'Linux Libertine O';-inkscape-font-specification:'Linux Libertine O';fill:#7c7c7c;fill-opacity:1;stroke-width:1"
           y="657.67053"
           x="718.96075"
           id="tspan1298"
           sodipodi:role="line">44Pes</tspan></text>
    </g>
    <path
       style="font-style:normal;font-weight:normal;font-size:4.67447329px;line-height:1.25;font-family:sans-serif;letter-spacing:0px;word-spacing:0px;fill:#002255;fill-opacity:1;stroke:none;stroke-width:0.44168255"
       d="M 99.345703 573.29297 L 99.345703 587.69141 L 100.85742 587.69141 L 100.85742 579.97461 C 101.27025 579.61054 101.70199 579.3105 102.15234 579.07617 C 102.6027 578.84184 103.03444 578.72461 103.44727 578.72461 C 103.84937 578.72461 104.17575 578.79041 104.42773 578.91992 C 104.67973 579.04318 104.87379 579.23494 105.00781 579.49414 C 105.13649 579.72857 105.22519 580.05511 105.27344 580.47461 C 105.32169 580.88791 105.3457 581.3316 105.3457 581.80664 L 105.3457 587.69141 L 106.85742 587.69141 L 106.85742 580.98242 C 106.85742 579.71774 106.60308 578.75055 106.09375 578.07812 C 105.58442 577.40572 104.84346 577.06836 103.87305 577.06836 C 103.34227 577.06836 102.82624 577.19429 102.32227 577.44727 C 101.81829 577.70019 101.32922 578.05356 100.85742 578.50391 L 100.85742 573.29297 L 99.345703 573.29297 z M 224.75391 573.29297 L 224.75391 577.77148 C 224.3518 577.53096 223.96809 577.35526 223.60352 577.24414 C 223.23894 577.12698 222.82141 577.06836 222.34961 577.06836 C 221.82955 577.06836 221.32578 577.19278 220.83789 577.43945 C 220.35536 577.68623 219.93098 578.04286 219.56641 578.51172 C 219.19647 578.9929 218.90146 579.57697 218.68164 580.26172 C 218.46719 580.94652 218.36133 581.72752 218.36133 582.60352 C 218.36133 584.28767 218.67545 585.60467 219.30273 586.55469 C 219.93538 587.50473 220.7871 587.97852 221.85938 587.97852 C 222.4116 587.97852 222.92273 587.85782 223.39453 587.61719 C 223.86633 587.37658 224.31963 587.0412 224.75391 586.60938 L 224.75391 587.69141 L 226.26562 587.69141 L 226.26562 573.29297 L 224.75391 573.29297 z M 65.367188 573.66406 C 63.415641 573.66406 61.8803 574.30308 60.759766 575.58008 C 59.644596 576.85093 59.087891 578.58673 59.087891 580.78906 C 59.087891 581.99204 59.236869 583.04463 59.537109 583.94531 C 59.837345 584.83983 60.264182 585.58517 60.816406 586.18359 C 61.363269 586.7758 62.025333 587.21951 62.802734 587.51562 C 63.58014 587.81176 64.434307 587.96094 65.367188 587.96094 C 66.090977 587.96094 66.839289 587.83308 67.611328 587.58008 C 68.388732 587.32098 69.105676 587.01928 69.759766 586.67383 L 69.759766 580.76172 L 64.974609 580.76172 L 64.974609 582.37109 L 68.183594 582.37109 L 68.183594 585.74805 C 67.797573 585.93317 67.346727 586.08401 66.832031 586.20117 C 66.3227 586.31859 65.809618 586.37891 65.294922 586.37891 C 63.890238 586.37891 62.781729 585.8855 61.966797 584.89844 C 61.151863 583.90523 60.744141 582.51723 60.744141 580.73438 C 60.744141 579.04404 61.13275 577.70386 61.910156 576.7168 C 62.692917 575.72359 63.753399 575.22656 65.09375 575.22656 C 65.688864 575.22656 66.221061 575.29236 66.6875 575.42188 C 67.159306 575.54549 67.579284 575.70354 67.949219 575.89453 C 68.254816 576.05491 68.566489 576.25546 68.882812 576.49609 C 69.199116 576.7366 69.439245 576.92997 69.605469 577.07812 L 69.751953 577.07812 L 69.751953 574.9043 C 68.93166 574.4541 68.164238 574.13637 67.451172 573.95117 C 66.74347 573.75993 66.048087 573.66406 65.367188 573.66406 z M 194.95898 573.66406 C 193.65617 573.66406 192.58148 574.03313 191.73438 574.77344 C 190.88727 575.50755 190.46289 576.45186 190.46289 577.60547 C 190.46289 578.61102 190.71723 579.42933 191.22656 580.05859 C 191.74126 580.68156 192.53024 581.12166 193.5918 581.38086 C 194.11721 581.50407 194.61168 581.60517 195.07812 581.68555 C 195.54993 581.76592 195.98852 581.86897 196.39062 581.99219 C 196.9214 582.15262 197.31492 582.37805 197.57227 582.66797 C 197.83497 582.95793 197.9668 583.40686 197.9668 584.01758 C 197.9668 584.72702 197.6909 585.29503 197.13867 585.7207 C 196.59181 586.14638 195.82439 586.35938 194.83789 586.35938 C 194.14091 586.35938 193.39505 586.20133 192.60156 585.88672 C 191.80808 585.57206 191.10974 585.1248 190.50391 584.54492 L 190.39062 584.54492 L 190.39062 586.83984 C 191.10369 587.20371 191.80397 587.47887 192.49023 587.66406 C 193.18185 587.84926 193.95908 587.94141 194.82227 587.94141 C 195.62648 587.94141 196.31255 587.83161 196.88086 587.60938 C 197.45453 587.38732 197.95586 587.07843 198.38477 586.68359 C 198.77616 586.3196 199.07852 585.87591 199.29297 585.35156 C 199.51279 584.82719 199.62305 584.29648 199.62305 583.75977 C 199.62305 582.7727 199.39762 582.00412 198.94727 581.45508 C 198.49691 580.90601 197.82749 580.49606 196.9375 580.22461 C 196.49787 580.09485 195.96077 579.96892 195.32812 579.8457 C 194.69548 579.72224 194.20836 579.61742 193.86523 579.53125 C 193.21651 579.35853 192.76321 579.10823 192.50586 578.78125 C 192.24851 578.4543 192.11914 578.00342 192.11914 577.42969 C 192.11914 576.78813 192.37788 576.2646 192.89258 575.85742 C 193.41263 575.45027 194.09871 575.24609 194.95117 575.24609 C 195.72857 575.24609 196.48669 575.39334 197.22656 575.68945 C 197.9718 575.97942 198.57163 576.34685 199.02734 576.79102 L 199.14062 576.79102 L 199.14062 574.62695 C 198.59912 574.35563 197.97773 574.1266 197.27539 573.94141 C 196.57305 573.75621 195.80073 573.66406 194.95898 573.66406 z M 109.6875 573.82031 L 109.6875 575.625 L 111.39258 575.625 L 111.39258 573.82031 L 109.6875 573.82031 z M 159.70898 573.82031 L 159.70898 575.625 L 161.41406 575.625 L 161.41406 573.82031 L 159.70898 573.82031 z M 229.16211 573.82031 L 229.16211 575.625 L 230.86719 575.625 L 230.86719 573.82031 L 229.16211 573.82031 z M 128.80469 573.91406 L 128.80469 587.69141 L 131.82812 587.69141 C 132.92721 587.69141 133.81225 587.60619 134.48242 587.43359 C 135.15796 587.26087 135.76955 586.97853 136.31641 586.58984 C 137.10453 586.02848 137.73327 585.24053 138.20508 584.22266 C 138.68224 583.20473 138.92188 582.06871 138.92188 580.81641 C 138.92188 579.47772 138.694 578.32042 138.23828 577.3457 C 137.78256 576.37099 137.14697 575.59191 136.33203 575.00586 C 135.85487 574.66631 135.26975 574.39998 134.57812 574.20898 C 133.89187 574.01169 132.96371 573.91406 131.79492 573.91406 L 128.80469 573.91406 z M 202.0918 574.38477 L 202.0918 577.35547 L 201.07031 577.35547 L 201.07031 578.81836 L 202.0918 578.81836 L 202.0918 584.31445 C 202.0918 585.56679 202.32948 586.47736 202.80664 587.04492 C 203.2838 587.61246 203.98164 587.89453 204.89844 587.89453 C 205.16115 587.89453 205.45861 587.86793 205.79102 587.8125 C 206.12878 587.75707 206.44045 587.68603 206.72461 587.59961 L 206.72461 586.03516 L 206.64258 586.03516 C 206.52463 586.09084 206.33252 586.16187 206.06445 586.24805 C 205.79639 586.32842 205.5396 586.36914 205.29297 586.36914 C 204.86943 586.36914 204.55286 586.31229 204.34375 586.20117 C 204.14004 586.08391 203.9793 585.90293 203.86133 585.65625 C 203.73262 585.39095 203.65814 585.10697 203.63672 584.80469 C 203.6153 584.49625 203.60352 584.07024 203.60352 583.52734 L 203.60352 578.81836 L 206.72461 578.81836 L 206.72461 577.35547 L 203.60352 577.35547 L 203.60352 574.38477 L 202.0918 574.38477 z M 130.39648 575.48438 L 131.89258 575.48438 C 132.63245 575.48438 133.26805 575.54671 133.79883 575.66992 C 134.3296 575.78714 134.83093 575.99821 135.30273 576.30664 C 135.95146 576.73232 136.43858 577.31633 136.76562 578.05664 C 137.09267 578.79692 137.25586 579.70753 137.25586 580.78711 C 137.25586 581.86055 137.10688 582.75509 136.80664 583.4707 C 136.51176 584.18632 136.06582 584.76318 135.4707 585.20117 C 134.99354 585.55284 134.4682 585.79236 133.89453 585.92188 C 133.32622 586.05139 132.65926 586.11719 131.89258 586.11719 L 130.39648 586.11719 L 130.39648 575.48438 z M 93.554688 577.06836 C 92.986378 577.06836 92.451238 577.20165 91.947266 577.4668 C 91.448655 577.7259 90.997807 578.04884 90.595703 578.4375 L 90.595703 577.35547 L 89.083984 577.35547 L 89.083984 591.50391 L 90.595703 591.50391 L 90.595703 587.17383 C 90.987083 587.42063 91.370792 587.60158 91.746094 587.71875 C 92.12675 587.83617 92.551137 587.89453 93.017578 587.89453 C 93.553719 587.89453 94.059947 587.77207 94.537109 587.52539 C 95.019637 587.27246 95.437164 586.91745 95.791016 586.46094 C 96.171659 585.97975 96.466673 585.39407 96.675781 584.70312 C 96.88489 584.00605 96.990234 583.23747 96.990234 582.39844 C 96.990234 580.72665 96.685916 579.4221 96.080078 578.48438 C 95.479604 577.54053 94.637688 577.06836 93.554688 577.06836 z M 145.12109 577.06836 C 143.81291 577.06836 142.75734 577.56538 141.95312 578.55859 C 141.15428 579.55183 140.75391 580.89368 140.75391 582.58398 C 140.75391 584.29281 141.17339 585.61339 142.00977 586.54492 C 142.84614 587.4703 144.00953 587.93359 145.5 587.93359 C 146.08439 587.93359 146.6411 587.85014 147.17188 587.68359 C 147.70265 587.51697 148.22309 587.30918 148.73242 587.0625 L 148.73242 585.16602 L 148.65234 585.16602 C 148.38964 585.43744 147.94614 585.71425 147.32422 585.99805 C 146.70766 586.27564 146.09557 586.41602 145.48438 586.41602 C 145.0233 586.41602 144.59891 586.34152 144.21289 586.19336 C 143.83223 586.0453 143.5034 585.82346 143.22461 585.52734 C 142.93509 585.22506 142.70721 584.838 142.54102 584.36914 C 142.37482 583.89415 142.29102 583.34052 142.29102 582.70508 L 148.91016 582.70508 L 148.91016 581.75977 C 148.91016 580.26065 148.57937 579.1053 147.91992 578.29102 C 147.26583 577.4767 146.33277 577.06836 145.12109 577.06836 z M 167.67969 577.06836 C 167.18644 577.06836 166.69002 577.19278 166.19141 577.43945 C 165.6928 577.68006 165.27037 578.01906 164.92188 578.45703 C 164.54658 578.92589 164.24911 579.4831 164.0293 580.13086 C 163.81485 580.77242 163.70703 581.53742 163.70703 582.42578 C 163.70703 584.04826 164.02115 585.30666 164.64844 586.20117 C 165.28108 587.08954 166.1328 587.53516 167.20508 587.53516 C 167.84845 587.53516 168.37624 587.43211 168.78906 587.22852 C 169.20725 587.01878 169.64389 586.70466 170.09961 586.28516 L 170.09961 587.22852 C 170.09961 587.64804 170.0609 588.02789 169.98047 588.36719 C 169.90007 588.70644 169.76579 588.9957 169.57812 589.23633 C 169.39047 589.48928 169.12683 589.68822 168.78906 589.83008 C 168.4513 589.97194 168.02446 590.04297 167.50977 590.04297 C 166.97362 590.04297 166.43848 589.95952 165.90234 589.79297 C 165.36621 589.63267 164.97514 589.49588 164.72852 589.38477 L 164.64844 589.38477 L 164.64844 591.16211 C 165.08807 591.30397 165.53206 591.41225 165.98242 591.48633 C 166.43814 591.56671 166.90565 591.60547 167.38281 591.60547 C 168.81967 591.60547 169.8826 591.19551 170.57422 590.375 C 171.26584 589.55451 171.61133 588.26959 171.61133 586.51758 L 171.61133 577.35547 L 170.19727 577.35547 L 170.09961 577.79883 C 169.70823 577.55228 169.33627 577.37132 168.98242 577.25391 C 168.63393 577.13069 168.19974 577.06836 167.67969 577.06836 z M 179.11523 577.06836 C 178.58446 577.06836 178.06647 577.19429 177.5625 577.44727 C 177.05853 577.70019 176.57141 578.05356 176.09961 578.50391 L 176.09961 577.35547 L 174.58789 577.35547 L 174.58789 587.69141 L 176.09961 587.69141 L 176.09961 579.97461 C 176.51244 579.61054 176.94417 579.3105 177.39453 579.07617 C 177.84489 578.84184 178.27663 578.72461 178.68945 578.72461 C 179.09156 578.72461 179.41794 578.79041 179.66992 578.91992 C 179.92192 579.04318 180.11598 579.23494 180.25 579.49414 C 180.37868 579.72857 180.46737 580.05511 180.51562 580.47461 C 180.56388 580.88791 180.58789 581.3316 180.58789 581.80664 L 180.58789 587.69141 L 182.09961 587.69141 L 182.09961 580.98242 C 182.09961 579.71774 181.84527 578.75055 181.33594 578.07812 C 180.8266 577.40572 180.08565 577.06836 179.11523 577.06836 z M 237.29297 577.06836 C 236.02232 577.06836 235.01036 577.56013 234.25977 578.54102 C 233.51453 579.51571 233.14258 580.84511 233.14258 582.5293 C 233.14258 584.21345 233.51453 585.54289 234.25977 586.51758 C 235.01036 587.49229 236.02232 587.97852 237.29297 587.97852 C 238.5529 587.97852 239.558 587.49229 240.30859 586.51758 C 241.05919 585.54289 241.43359 584.21345 241.43359 582.5293 C 241.43359 580.84511 241.05919 579.51571 240.30859 578.54102 C 239.558 577.56013 238.5529 577.06836 237.29297 577.06836 z M 82.248047 577.10547 C 81.706546 577.10547 81.157196 577.16037 80.599609 577.27148 C 80.042026 577.3826 79.615191 577.48565 79.320312 577.57812 L 79.320312 579.3457 L 79.402344 579.3457 C 79.922399 579.11765 80.426176 578.94359 80.914062 578.82617 C 81.401952 578.70296 81.843492 578.64258 82.240234 578.64258 C 82.567279 578.64258 82.881403 578.66546 83.181641 578.71484 C 83.481884 578.76423 83.738675 578.86009 83.953125 579.00195 C 84.178307 579.14991 84.350804 579.35408 84.46875 579.61328 C 84.592063 579.87238 84.652344 580.19892 84.652344 580.59375 L 84.652344 580.86328 C 83.773074 580.91267 82.950273 580.98521 82.183594 581.08398 C 81.416914 581.18271 80.759753 581.37084 80.212891 581.64844 C 79.67139 581.92606 79.253861 582.30952 78.958984 582.79688 C 78.669468 583.27806 78.525391 583.90989 78.525391 584.69336 C 78.525391 585.64958 78.806193 586.43584 79.369141 587.05273 C 79.932086 587.66963 80.618165 587.97852 81.427734 587.97852 C 81.867372 587.97852 82.25108 587.92885 82.578125 587.83008 C 82.90517 587.73761 83.195282 587.62037 83.447266 587.47852 C 83.661741 587.3676 83.88031 587.22035 84.105469 587.03516 C 84.336022 586.84384 84.518322 586.69466 84.652344 586.58984 L 84.652344 587.69141 L 86.15625 587.69141 L 86.15625 580.67773 C 86.15625 580.01148 86.067557 579.4523 85.890625 579.00195 C 85.7137 578.55161 85.456909 578.18416 85.119141 577.90039 C 84.776012 577.61063 84.368288 577.40843 83.896484 577.29102 C 83.430043 577.1678 82.880692 577.10547 82.248047 577.10547 z M 154.26562 577.10742 C 153.69196 577.10742 153.17152 577.19264 152.70508 577.36523 C 152.244 577.53181 151.86274 577.76082 151.5625 578.05078 C 151.25155 578.34687 151.01877 578.68228 150.86328 579.05859 C 150.71316 579.43491 150.63867 579.83604 150.63867 580.26172 C 150.63867 580.9403 150.80186 581.51356 151.12891 581.98242 C 151.46132 582.44506 152.02242 582.79648 152.81055 583.03711 C 153.0947 583.12328 153.40687 583.20522 153.75 583.2793 C 154.0985 583.35312 154.38125 583.41697 154.5957 583.47266 C 155.17475 583.62081 155.56581 583.80013 155.76953 584.00977 C 155.97325 584.2195 156.07422 584.52839 156.07422 584.93555 C 156.07422 585.46617 155.88702 585.85489 155.51172 586.10156 C 155.13642 586.34824 154.61599 586.4707 153.95117 586.4707 C 153.41503 586.4707 152.85587 586.35 152.27148 586.10938 C 151.68709 585.8626 151.1549 585.53247 150.67773 585.11914 L 150.59766 585.11914 L 150.59766 587.07227 C 150.97295 587.28805 151.43801 587.48863 151.99023 587.67383 C 152.54782 587.85273 153.15745 587.94141 153.82227 587.94141 C 154.99641 587.94141 155.92212 587.6397 156.59766 587.03516 C 157.27855 586.43058 157.61914 585.65674 157.61914 584.71289 C 157.61914 583.96026 157.42949 583.35691 157.04883 582.90039 C 156.66817 582.45017 156.12617 582.13246 155.42383 581.94727 C 155.19329 581.88553 154.90318 581.81627 154.55469 581.74219 C 154.21156 581.66811 153.90184 581.59361 153.62305 581.51953 C 153.11908 581.38382 152.75448 581.20812 152.5293 580.99219 C 152.29875 580.77628 152.18164 580.45693 152.18164 580.03125 C 152.18164 579.55009 152.37325 579.1879 152.75391 578.94727 C 153.13457 578.70059 153.60012 578.57812 154.15234 578.57812 C 154.68312 578.57812 155.22512 578.69164 155.77734 578.91992 C 156.32957 579.14203 156.79953 579.41719 157.18555 579.74414 L 157.26562 579.74414 L 157.26562 577.88477 C 156.90105 577.66898 156.44285 577.48605 155.89062 577.33789 C 155.34377 577.18369 154.80177 577.10742 154.26562 577.10742 z M 118.06836 577.11523 C 116.74409 577.11523 115.67676 577.59623 114.86719 578.55859 C 114.06298 579.52096 113.66016 580.84873 113.66016 582.53906 C 113.66016 583.44592 113.76797 584.23741 113.98242 584.91602 C 114.19688 585.59462 114.49924 586.15544 114.89062 586.59961 C 115.27665 587.04363 115.7417 587.37737 116.2832 587.59961 C 116.8247 587.81555 117.41963 587.92383 118.06836 587.92383 C 118.57769 587.92383 119.05746 587.84586 119.50781 587.69141 C 119.96353 587.53718 120.44329 587.32254 120.94727 587.04492 L 120.94727 585.12891 L 120.86719 585.12891 C 120.7546 585.23375 120.60121 585.35966 120.4082 585.50781 C 120.21519 585.64975 120.00888 585.7865 119.78906 585.91602 C 119.53708 586.06417 119.25382 586.18487 118.9375 586.27734 C 118.62118 586.36982 118.3095 586.41602 118.00391 586.41602 C 117.12464 586.41602 116.44101 586.0823 115.95312 585.41602 C 115.4706 584.74359 115.22852 583.78324 115.22852 582.53711 C 115.22852 581.25393 115.4755 580.28315 115.96875 579.62305 C 116.46736 578.95682 117.14608 578.62305 118.00391 578.62305 C 118.47035 578.62305 118.94766 578.7348 119.43555 578.95703 C 119.9288 579.17912 120.40611 579.49683 120.86719 579.91016 L 120.94727 579.91016 L 120.94727 577.97656 C 120.53444 577.73593 120.07869 577.53179 119.58008 577.36523 C 119.08683 577.19868 118.58305 577.11523 118.06836 577.11523 z M 72.421875 577.35547 L 72.421875 587.69141 L 73.933594 587.69141 L 73.933594 580.35352 C 74.335698 579.97707 74.753227 579.67183 75.1875 579.4375 C 75.621773 579.19687 76.072621 579.07617 76.539062 579.07617 C 76.828564 579.07617 77.078001 579.09231 77.287109 579.12305 C 77.50156 579.14774 77.720128 579.19022 77.945312 579.25195 L 78.027344 579.25195 L 78.027344 577.46875 C 77.791436 577.42592 77.61404 577.39932 77.496094 577.38672 C 77.378145 577.36656 77.186536 577.35547 76.923828 577.35547 C 76.446663 577.35547 75.978658 577.4727 75.517578 577.70703 C 75.06186 577.93529 74.53407 578.3276 73.933594 578.88281 L 73.933594 577.35547 L 72.421875 577.35547 z M 109.78516 577.35547 L 109.78516 587.69141 L 111.29688 587.69141 L 111.29688 577.35547 L 109.78516 577.35547 z M 159.80664 577.35547 L 159.80664 587.69141 L 161.31836 587.69141 L 161.31836 577.35547 L 159.80664 577.35547 z M 208.49414 577.35547 L 208.49414 584.06445 C 208.49414 585.34763 208.75583 586.322 209.28125 586.98828 C 209.80667 587.64836 210.54077 587.97852 211.48438 587.97852 C 212.04732 587.97852 212.56286 587.85605 213.0293 587.60938 C 213.49574 587.36265 213.98285 587.00764 214.49219 586.54492 L 214.49219 587.69141 L 216.00391 587.69141 L 216.00391 577.35547 L 214.49219 577.35547 L 214.49219 585.07422 C 214.09008 585.43829 213.65589 585.73637 213.18945 585.9707 C 212.72837 586.20503 212.30349 586.32227 211.91211 586.32227 C 211.47248 586.32227 211.1368 586.26018 210.90625 586.13672 C 210.67571 586.01338 210.48851 585.81637 210.34375 585.54492 C 210.20436 585.27962 210.1132 584.96194 210.07031 584.5918 C 210.02743 584.21548 210.00586 583.76461 210.00586 583.24023 L 210.00586 577.35547 L 208.49414 577.35547 z M 229.25781 577.35547 L 229.25781 587.69141 L 230.76953 587.69141 L 230.76953 577.35547 L 229.25781 577.35547 z M 145.04102 578.50391 C 145.84523 578.50391 146.4426 578.75225 146.83398 579.25195 C 147.2308 579.75163 147.43221 580.45806 147.4375 581.37109 L 142.29102 581.37109 C 142.35535 580.55676 142.62635 579.87519 143.10352 579.32617 C 143.58604 578.77711 144.23145 578.50391 145.04102 578.50391 z M 237.29297 578.56836 C 238.10254 578.56836 238.73374 578.89489 239.18945 579.54883 C 239.64517 580.19659 239.87305 581.19059 239.87305 582.5293 C 239.87305 583.83714 239.64272 584.824 239.18164 585.49023 C 238.72592 586.15034 238.09718 586.48047 237.29297 586.48047 C 236.47804 586.48047 235.84244 586.14672 235.38672 585.48047 C 234.931 584.80802 234.70312 583.82477 234.70312 582.5293 C 234.70312 581.19059 234.92855 580.19659 235.37891 579.54883 C 235.83463 578.89489 236.47268 578.56836 237.29297 578.56836 z M 167.94531 578.63281 C 168.28844 578.63281 168.63148 578.67901 168.97461 578.77148 C 169.3231 578.85799 169.69751 579.00521 170.09961 579.21484 L 170.09961 584.85156 C 169.72967 585.17864 169.32195 585.44138 168.87695 585.63867 C 168.43732 585.82992 167.99823 585.92383 167.55859 585.92383 C 166.7383 585.92383 166.15072 585.62574 165.79688 585.02734 C 165.44302 584.42894 165.26758 583.55041 165.26758 582.39062 C 165.26758 581.16913 165.50526 580.23727 165.98242 579.5957 C 166.45958 578.95412 167.1143 578.63281 167.94531 578.63281 z M 222.60742 578.66016 C 222.98808 578.66016 223.33847 578.70087 223.66016 578.78125 C 223.98184 578.86158 224.34644 579.00521 224.75391 579.21484 L 224.75391 585.14648 C 224.37325 585.49181 223.96307 585.77581 223.52344 585.99805 C 223.08381 586.21398 222.64962 586.32227 222.2207 586.32227 C 221.4165 586.32227 220.83333 586.00455 220.46875 585.36914 C 220.10418 584.72755 219.92188 583.79207 219.92188 582.56445 C 219.92188 581.31829 220.1571 580.35634 220.62891 579.67773 C 221.10071 578.99913 221.76032 578.66016 222.60742 578.66016 z M 93.169922 578.72461 C 93.936599 578.72461 94.505062 579.0335 94.875 579.65039 C 95.244935 580.26731 95.429688 581.19918 95.429688 582.44531 C 95.429688 583.72849 95.194457 584.6976 94.722656 585.35156 C 94.250853 586.00547 93.593692 586.33203 92.751953 586.33203 C 92.360568 586.33203 92.008225 586.29132 91.697266 586.21094 C 91.391668 586.13089 91.024617 585.98005 90.595703 585.75781 L 90.595703 579.90039 C 90.997807 579.54877 91.41974 579.26477 91.859375 579.04883 C 92.29901 578.83289 92.735647 578.72461 93.169922 578.72461 z M 84.652344 582.26953 L 84.652344 585.14648 C 84.277047 585.47959 83.871278 585.76718 83.431641 586.00781 C 82.992008 586.24214 82.505389 586.35938 81.974609 586.35938 C 81.336605 586.35938 80.861746 586.2121 80.550781 585.91602 C 80.239822 585.6137 80.085938 585.16642 80.085938 584.57422 C 80.085938 584.04985 80.218256 583.63794 80.486328 583.3418 C 80.754397 583.03951 81.106743 582.81764 81.541016 582.67578 C 81.905591 582.55862 82.399563 582.46994 83.021484 582.4082 C 83.648765 582.34647 84.191262 582.30027 84.652344 582.26953 z "
       transform="matrix(0.26458333,0,0,0.26458333,0,131.6354)"
       id="path919" />
    <path
       sodipodi:nodetypes="ccccccccccc"
       inkscape:connector-curvature="0"
       id="path4795"
       d="m 180.49463,178.97009 c -9.43244,-9.43248 -34.68339,1.51814 -57.01179,23.84659 -20.88657,20.90081 -30.447614,46.52818 -23.554546,57.21494 -7.820065,-7.73186 -13.453668,-13.44063 -19.772798,-19.6839 -0.50701,-0.52872 -0.957747,-1.11275 -1.35092,-1.75016 l -0.144399,-0.14433 0.04152,-0.0415 c -6.666031,-10.78613 4.054279,-34.80439 24.804063,-55.57214 20.77437,-20.774 44.8182,-31.51526 55.61237,-24.84431 0.68587,0.42637 1.48575,1.08398 1.89581,1.49404 z"
       style="opacity:1;fill:url(#linearGradient4833);fill-opacity:1;stroke:none;stroke-width:2.29059315;stroke-linecap:round;stroke-linejoin:round;stroke-miterlimit:4;stroke-dasharray:none;stroke-dashoffset:0;stroke-opacity:1;paint-order:normal"
       inkscape:export-xdpi="96"
       inkscape:export-ydpi="96" />
    <path
       inkscape:connector-curvature="0"
       style="opacity:1;fill:url(#linearGradient4841);fill-opacity:1;stroke:none;stroke-width:2.29059315;stroke-linecap:round;stroke-linejoin:round;stroke-miterlimit:4;stroke-dasharray:none;stroke-dashoffset:0;stroke-opacity:1;paint-order:normal"
       d="m 171.55819,175.52892 a 24.153311,57.175415 45 0 0 -48.57181,26.7912 24.153311,57.175415 45 0 0 -23.350206,57.50814 24.153311,57.175415 45 0 0 57.508146,-23.35019 24.153311,57.175415 45 0 0 0.80372,-0.828 51.815218,21.888939 45 0 0 -0.93867,-2.30229 21.888939,51.815218 45 0 1 -1.46601,1.52933 21.888939,51.815218 45 0 1 -52.11698,21.16096 21.888939,51.815218 45 0 1 21.16154,-52.11641 21.888939,51.815218 45 0 1 52.11639,-21.16094 21.888939,51.815218 45 0 1 -0.79959,23.95921 c 0.56585,0.96964 1.10815,1.93406 1.61811,2.8894 a 24.153311,57.175415 45 0 0 2.97168,-30.6394 24.153311,57.175415 45 0 0 -8.93632,-3.44101 z"
       id="path4797"
       inkscape:export-xdpi="96"
       inkscape:export-ydpi="96" />
    <path
       style="font-style:normal;font-variant:normal;font-weight:normal;font-stretch:normal;font-size:25.67616844px;line-height:1.25;font-family:'Linux Libertine O';-inkscape-font-specification:'Linux Libertine O';letter-spacing:0px;word-spacing:0px;fill:#002255;fill-opacity:1;stroke:none;stroke-width:0.1971563"
       d="m 34.434918,191.77781 c -0.126557,0.0506 -0.506426,0.1215 -0.708916,0.13669 -0.01013,0.0405 1.8e-5,0.12135 0.03042,0.15173 0.263235,0.0152 0.324231,-0.0101 0.324231,0.4151 l -3.87e-4,2.21223 c 0,0.42017 -0.05536,0.44029 -0.338862,0.46055 -0.0304,0.0304 -0.0304,0.13674 0,0.16712 0.167051,-0.005 0.338921,-0.0104 0.541411,-0.0104 0.177176,0 0.344499,0.005 0.460929,0.0104 0.0304,-0.0304 0.0304,-0.13675 0,-0.16712 -0.207548,-0.0203 -0.263388,-0.0403 -0.263388,-0.46055 v -0.43551 c 0.09618,0 0.166938,0.0102 0.217566,0.0254 0.05566,0.0355 0.101368,0.0807 0.162113,0.16173 l 0.369669,0.49635 c 0.14681,0.20249 0.202439,0.29858 0.212559,0.35427 0,0.0152 0.005,0.0254 0.02002,0.0254 0.101244,-0.005 0.212973,-0.0104 0.314218,-0.0104 0.15693,0 0.313861,0.005 0.415106,0.0104 0.0304,-0.0304 0.0304,-0.13675 0,-0.16713 -0.172109,-0.0203 -0.303898,-0.0404 -0.435516,-0.21255 l -0.668097,-0.84023 c -0.02027,-0.0203 -0.03542,-0.0455 -0.03542,-0.0709 0,-0.0203 -2.44e-4,-0.0306 0.02002,-0.0508 l 0.445526,-0.46055 c 0.151872,-0.16199 0.32891,-0.20271 0.531397,-0.22296 0.0304,-0.0304 0.0304,-0.13636 0,-0.16673 -0.11643,0.005 -0.257892,0.01 -0.440136,0.01 -0.19236,0 -0.379923,-0.005 -0.496356,-0.01 -0.0304,0.0304 -0.0304,0.13636 0,0.16673 0.283489,0.0203 0.162236,0.20271 0.116677,0.25839 -0.116431,0.14681 -0.278536,0.31892 -0.405095,0.4151 -0.11643,0.0861 -0.253135,0.1466 -0.344253,0.15673 v -1.76671 c 0,-0.32904 0.02041,-0.53139 0.02041,-0.53139 0,-0.0355 -0.02032,-0.0504 -0.06585,-0.0504 z m -4.193807,0.25799 c -0.121492,0 -0.263389,0.12149 -0.263389,0.24298 0,0.13163 0.121481,0.26301 0.242979,0.26301 0.141744,0 0.263389,-0.13161 0.263389,-0.24299 0,-0.12149 -0.106294,-0.263 -0.242979,-0.263 z m 25.083903,0.93649 c -0.131617,0 -0.37475,0.0859 -0.506368,0.25801 -0.06073,-0.0405 -0.227717,-0.14171 -0.526391,-0.14171 -0.450538,0 -0.865639,0.30364 -0.865639,0.76937 0,0.27336 0.121259,0.43054 0.263003,0.56721 -0.141744,0.1215 -0.222572,0.33926 -0.222572,0.51137 0,0.18224 0.101352,0.32388 0.23297,0.38969 -0.273361,0.16199 -0.415107,0.39459 -0.415107,0.61227 0,0.44041 0.415006,0.57722 0.804798,0.57722 0.683399,0 1.422451,-0.32894 1.422451,-0.87565 0,-0.16199 -0.07577,-0.28861 -0.22257,-0.41011 -0.19743,-0.16199 -0.552041,-0.16711 -0.739335,-0.16711 -0.09113,0 -0.217752,0.0102 -0.33925,0.0254 -0.07593,0.005 -0.126405,0.01 -0.151717,0.01 -0.146803,0 -0.323845,-0.0707 -0.323845,-0.28842 0,-0.10124 0.03016,-0.20775 0.09088,-0.29381 0.12149,0.0709 0.263499,0.10667 0.46093,0.10667 0.445471,0 0.855242,-0.27866 0.855242,-0.77477 0,-0.23792 -0.07075,-0.37452 -0.217564,-0.52638 0.03547,-0.0506 0.136742,-0.12169 0.202547,-0.12169 0.03547,0 0.07089,0.0154 0.101273,0.0608 0.02027,0.0405 0.08602,0.0913 0.141706,0.0913 0.09618,0 0.187145,-0.0913 0.187145,-0.19254 0,-0.1063 -0.09591,-0.18714 -0.232584,-0.18714 z m -24.932186,0.10128 c -0.146804,0.0557 -0.344221,0.10115 -0.693513,0.14671 -0.01013,0.0304 -1.22e-4,0.11134 0.01001,0.14171 0.273361,0.0304 0.329235,0.0557 0.329235,0.34425 v 0.98694 c 0,0.42016 -0.05585,0.43561 -0.364662,0.46093 -0.0304,0.0304 -0.0304,0.13674 0,0.16712 0.16705,-0.005 0.364721,-0.0104 0.567211,-0.0104 0.202489,0 0.394768,0.005 0.561819,0.0104 0.0304,-0.0304 0.0304,-0.13675 0,-0.16712 -0.308794,-0.0203 -0.364278,-0.0408 -0.364278,-0.46093 l -3.85e-4,3.8e-4 v -1.00773 c 0,-0.25311 0.02041,-0.57684 0.02041,-0.57684 0,-0.0203 -0.02538,-0.0354 -0.06585,-0.0354 z m 1.273045,0 c -0.141744,0.0557 -0.273367,0.10115 -0.622659,0.14671 -0.01013,0.0304 2.62e-4,0.11134 0.01039,0.14171 0.273361,0.0253 0.328851,0.0506 0.328851,0.34425 v 0.98732 c 0,0.4151 -0.05051,0.43523 -0.354266,0.46055 -0.0304,0.0304 -0.0304,0.13674 0,0.16712 0.151863,-0.005 0.354323,-0.0104 0.556812,-0.0104 0.20249,0 0.354499,0.005 0.506369,0.0104 0.0304,-0.0304 0.0304,-0.13675 0,-0.16712 -0.258175,-0.0253 -0.308826,-0.0454 -0.308826,-0.46055 v -0.83021 c 0,-0.10631 0.04535,-0.167 0.08587,-0.21256 0.192371,-0.1873 0.420225,-0.29882 0.617655,-0.29882 0.101244,0 0.207649,0.0657 0.268392,0.18214 0.0506,0.10125 0.06084,0.23783 0.06084,0.3897 v 0.76975 c 0,0.4151 -0.05096,0.43523 -0.314219,0.46055 -0.02533,0.0304 -0.02533,0.13674 0,0.16712 0.151864,-0.005 0.313891,-0.0104 0.516381,-0.0104 0.202489,0 0.384926,0.005 0.536787,0.0104 0.02534,-0.0304 0.02534,-0.13675 0,-0.16712 -0.283479,-0.0253 -0.339247,-0.0454 -0.339247,-0.46055 v -0.75435 c 0,-0.27842 -0.02029,-0.52157 -0.1367,-0.6785 -0.08606,-0.11137 -0.242928,-0.17212 -0.420112,-0.17212 -0.248049,0 -0.531538,0.0659 -0.830212,0.4101 -0.03547,0.0355 -0.06084,0.0506 -0.06084,0 -0.0052,-0.13669 -0.02024,-0.329 -0.04043,-0.38469 -0.0152,-0.0203 -0.02038,-0.0405 -0.06084,-0.0405 z m 11.714627,0 c -0.141743,0.0557 -0.273367,0.10115 -0.622659,0.14671 -0.01013,0.0304 -1.24e-4,0.11134 0.01002,0.14171 0.273361,0.0253 0.328849,0.0506 0.328849,0.34425 v 2.16179 c 0,0.42016 -0.05546,0.44535 -0.364276,0.46054 -0.0304,0.0304 -0.0304,0.13675 0,0.16713 0.177182,-0.005 0.364335,-0.0104 0.566825,-0.0104 0.202489,0 0.445591,0.005 0.612647,0.0104 0.0304,-0.0304 0.0304,-0.13676 0,-0.16713 -0.35942,-0.0203 -0.415107,-0.0403 -0.415107,-0.46054 v -0.5468 c 0,-0.0658 0.01519,-0.0557 0.07086,-0.0355 0.121497,0.0506 0.27853,0.0759 0.44052,0.0759 0.283481,0 0.53641,-0.086 0.743958,-0.28342 0.237928,-0.23286 0.374674,-0.54686 0.374674,-0.9569 0,-0.5366 -0.379712,-1.03276 -0.89606,-1.03276 -0.237922,0 -0.496083,0.15695 -0.693513,0.37968 -0.0304,0.0355 -0.05545,0.0306 -0.05545,-0.02 h -3.85e-4 c -0.01013,-0.15186 -0.02024,-0.27856 -0.04043,-0.33424 -0.0152,-0.0203 -0.01999,-0.0405 -0.06045,-0.0405 z m 8.653314,0 c -0.141744,0.0557 -0.273368,0.10115 -0.622659,0.14671 -0.01013,0.0304 2.61e-4,0.11134 0.01039,0.14171 0.273362,0.0253 0.328851,0.0506 0.328851,0.34425 v 0.98732 c 0,0.42017 -0.0608,0.44029 -0.374673,0.46055 -0.0304,0.0304 -0.0304,0.13674 0,0.16712 0.177176,-0.005 0.374725,-0.0104 0.577222,-0.0104 0.202489,0 0.435463,0.005 0.612647,0.0104 0.0304,-0.0304 0.0304,-0.13675 0,-0.16712 -0.35436,-0.0253 -0.415106,-0.0403 -0.415106,-0.46055 v -0.70391 c 0,-0.13162 0.06053,-0.24774 0.121296,-0.33886 0.05566,-0.081 0.172224,-0.24837 0.232969,-0.24837 0.04553,0 0.09126,0.0153 0.126688,0.0659 0.04046,0.0506 0.09603,0.11668 0.187145,0.11668 0.121491,0 0.237973,-0.12682 0.237973,-0.25338 0,-0.0962 -0.09121,-0.24298 -0.30382,-0.24298 -0.23793,0 -0.445388,0.22269 -0.561818,0.42011 -0.0304,0.0557 -0.05583,0.0154 -0.05583,-0.01 -0.01013,-0.20249 -0.02024,-0.329 -0.04043,-0.38469 -0.0152,-0.0203 -0.02038,-0.0405 -0.06084,-0.0405 z m -14.770551,0.0151 c -0.374605,0 -0.713921,0.24284 -0.713921,0.56682 0,0.36955 0.167021,0.52652 0.556813,0.68851 0.420164,0.17212 0.51638,0.27829 0.51638,0.49597 0,0.24805 -0.242822,0.35465 -0.430125,0.35465 -0.197422,0 -0.30903,-0.066 -0.359656,-0.12168 -0.111364,-0.11644 -0.166784,-0.33901 -0.197156,-0.46556 -0.0304,-0.0304 -0.126736,-0.0256 -0.157108,0.005 0.02027,0.24805 0.03543,0.48591 0.03543,0.69852 0.0506,-0.0101 0.101383,-0.0151 0.126688,-0.0151 0.03547,0 0.06583,-1.3e-4 0.101273,0.01 0.136684,0.0355 0.273243,0.0558 0.460546,0.0558 0.283487,0 0.804798,-0.1369 0.804798,-0.63806 0,-0.34423 -0.248014,-0.54655 -0.592238,-0.67311 -0.308803,-0.11137 -0.505984,-0.19252 -0.505984,-0.47094 0,-0.20756 0.182148,-0.32384 0.354264,-0.32384 0.111372,0 0.404746,0.0406 0.470557,0.47094 0.0304,0.0304 0.131744,0.0252 0.162116,-0.005 0.0152,-0.18225 0.02535,-0.36974 0.03042,-0.53679 -0.15693,-0.0253 -0.399858,-0.0959 -0.663093,-0.0959 z m 2.17488,0 c -0.501161,0 -1.037766,0.45062 -1.037766,1.16946 0,0.65302 0.364501,1.10361 1.002341,1.10361 0.303733,0 0.571714,-0.0963 0.824821,-0.51138 -0.02027,-0.0455 -0.06071,-0.0658 -0.106279,-0.0709 -0.172117,0.22273 -0.389581,0.33424 -0.607257,0.33424 -0.369538,0 -0.678496,-0.37463 -0.678496,-0.96691 0,-0.55685 0.243116,-0.89106 0.577223,-0.89106 0.298674,0 0.339024,0.17709 0.35927,0.35426 0.0152,0.1367 0.08623,0.18253 0.192536,0.18253 0.106303,0 0.247986,-0.066 0.247986,-0.22296 0,-0.27843 -0.288408,-0.48095 -0.774379,-0.48095 z m 2.053969,0 c -0.415105,0 -0.835604,0.27326 -0.835604,0.56182 0,0.12148 0.06106,0.18252 0.177518,0.18252 0.146804,0 0.237589,-0.10632 0.237589,-0.17213 0,-0.0355 -0.0051,-0.071 -0.01501,-0.0913 -0.0052,-0.0152 -0.01002,-0.0455 -0.01002,-0.10127 0,-0.15692 0.212347,-0.21256 0.404709,-0.21256 0.172117,0 0.4101,0.0861 0.4101,0.65808 0,0.0355 -0.01522,0.0557 -0.03042,0.0609 l -0.43513,0.10628 c -0.485968,0.12149 -0.835219,0.38971 -0.835219,0.73395 0,0.4151 0.283318,0.5468 0.637679,0.5468 0.172109,0 0.329063,-0.0404 0.551806,-0.21256 l 0.101274,-0.0812 h 0.01001 c 0.0304,0.15692 0.08107,0.29381 0.339247,0.29381 0.192363,0 0.37465,-0.0863 0.480955,-0.18753 -0.01013,-0.0607 -0.0306,-0.10126 -0.08626,-0.1367 -0.04046,0.0355 -0.126401,0.0813 -0.187145,0.0813 -0.146804,0 -0.151717,-0.19765 -0.151717,-0.43051 v -0.74396 c 0,-0.71883 -0.394828,-0.85562 -0.764367,-0.85562 z m 8.481958,0 c -0.334099,0 -0.612551,0.13659 -0.794787,0.35426 -0.182243,0.21768 -0.278406,0.51129 -0.278406,0.83021 0,0.51634 0.344342,1.0886 1.063181,1.0886 0.323979,0 0.566834,-0.11129 0.73895,-0.28341 0.227795,-0.21768 0.334244,-0.53677 0.334244,-0.85063 0,-0.52647 -0.288657,-1.13903 -1.063182,-1.13903 z m -3.412884,0.0104 c -0.440418,0 -1.012353,0.42002 -1.012353,1.18948 0,0.28348 0.07053,0.5566 0.237589,0.74896 0.172118,0.20249 0.410285,0.32424 0.774764,0.32424 0.384725,0 0.658145,-0.17729 0.860633,-0.44053 -0.0152,-0.0506 -0.04551,-0.0758 -0.106279,-0.0809 -0.187303,0.19236 -0.334443,0.2734 -0.62805,0.2734 -0.182238,0 -0.394492,-0.10649 -0.551422,-0.36467 -0.101244,-0.16705 -0.162114,-0.3999 -0.162114,-0.69351 l 1.346591,0.01 c 0.06073,0 0.09627,-0.0303 0.09627,-0.0859 0,-0.42523 -0.151982,-0.88065 -0.855627,-0.88065 z m -29.29273,0.03 c -0.03037,0.0304 -0.03037,0.13674 0,0.16711 0.237925,0.0253 0.293397,0.076 0.399703,0.33925 l 0.663092,1.63501 c 0.03037,0.0709 0.07106,0.10128 0.121683,0.10128 0.04556,0 0.08586,-0.0303 0.121299,-0.11129 l 0.511374,-1.24532 0.521385,1.25533 c 0.03037,0.0709 0.07106,0.10128 0.121682,0.10128 0.04556,0 0.08592,-0.0304 0.116292,-0.10629 l 0.658086,-1.60458 c 0.08606,-0.20249 0.172336,-0.34948 0.430509,-0.36467 0.03037,-0.0304 0.03037,-0.13674 0,-0.16711 -0.101244,0.005 -0.212795,0.0104 -0.364662,0.0104 -0.151866,0 -0.364513,-0.005 -0.516381,-0.0104 -0.03037,0.0304 -0.03037,0.13674 0,0.16711 0.379666,0.0203 0.323863,0.16708 0.252993,0.34426 l -0.420112,1.05317 c -0.05062,0.12656 -0.07073,0.12631 -0.116293,0.02 L 19.333592,193.605 c -0.09112,-0.23792 -0.08077,-0.28859 0.187529,-0.30883 0.03037,-0.0304 0.03037,-0.13675 0,-0.16712 -0.151868,0.005 -0.3545,0.0104 -0.506368,0.0104 -0.126555,0 -0.293661,-0.005 -0.445526,-0.0104 -0.03037,0.0304 -0.03037,0.13674 0,0.16712 0.237924,0.0253 0.293564,0.17234 0.384685,0.39508 l 0.03543,0.0809 -0.354264,0.89606 c -0.06581,0.16706 -0.0809,0.17706 -0.146712,0.01 l -0.405095,-1.04278 c -0.09112,-0.24298 -0.08588,-0.32406 0.15711,-0.33924 0.03037,-0.0304 0.03037,-0.13675 0,-0.16712 -0.151868,0.005 -0.329135,0.0104 -0.511374,0.0104 -0.192366,0 -0.328928,-0.005 -0.460546,-0.0104 z m 3.855715,0 c -0.03037,0.0304 -0.03037,0.13674 0,0.16711 0.237925,0.0253 0.293783,0.076 0.40009,0.33925 l 0.663092,1.63501 c 0.03037,0.0709 0.07106,0.10128 0.12168,0.10128 0.04556,0 0.08586,-0.0303 0.121299,-0.11129 l 0.511374,-1.24532 0.521386,1.25533 c 0.03037,0.0709 0.07068,0.10128 0.121298,0.10128 0.04556,0 0.0863,-0.0304 0.116675,-0.10629 l 0.658086,-1.60458 c 0.08606,-0.20249 0.171952,-0.34948 0.430125,-0.36467 0.03037,-0.0304 0.03037,-0.13674 0,-0.16711 -0.101244,0.005 -0.21241,0.0104 -0.364276,0.0104 -0.151868,0 -0.364514,-0.005 -0.516381,-0.0104 -0.03037,0.0304 -0.03037,0.13674 0,0.16711 0.379666,0.0203 0.323862,0.16708 0.252992,0.34426 l -0.420113,1.05317 c -0.05063,0.12656 -0.07073,0.12631 -0.11629,0.02 L 23.189691,193.605 c -0.09112,-0.23792 -0.08077,-0.28859 0.18753,-0.30883 0.03037,-0.0304 0.03037,-0.13675 0,-0.16712 -0.151866,0.005 -0.354502,0.0104 -0.506369,0.0104 -0.126555,0 -0.293658,-0.005 -0.445526,-0.0104 -0.03037,0.0304 -0.03037,0.13674 0,0.16712 0.237925,0.0253 0.293566,0.17234 0.384686,0.39508 l 0.03543,0.0809 -0.354267,0.89606 c -0.06581,0.16706 -0.0809,0.17706 -0.146712,0.01 l -0.405095,-1.04278 c -0.09112,-0.24298 -0.08587,-0.32406 0.15711,-0.33924 0.03037,-0.0304 0.03037,-0.13675 0,-0.16712 -0.151867,0.005 -0.329134,0.0104 -0.511374,0.0104 -0.192365,0 -0.329313,-0.005 -0.46093,-0.0104 z m 3.8561,0 c -0.03037,0.0304 -0.03037,0.13674 0,0.16711 0.237924,0.0253 0.293782,0.076 0.400089,0.33925 l 0.663092,1.63501 c 0.03037,0.0709 0.07068,0.10128 0.121299,0.10128 0.04556,0 0.08624,-0.0303 0.12168,-0.11129 l 0.511374,-1.24532 0.521386,1.25533 c 0.03037,0.0709 0.07068,0.10128 0.121299,0.10128 0.04556,0 0.08631,-0.0304 0.116677,-0.10629 l 0.658086,-1.60458 c 0.08606,-0.20249 0.171956,-0.34948 0.430124,-0.36467 0.0304,-0.0304 0.0304,-0.13674 0,-0.16711 -0.101238,0.005 -0.212793,0.0104 -0.364662,0.0104 -0.151864,0 -0.364132,-0.005 -0.515996,-0.0104 -0.0304,0.0304 -0.0304,0.13674 0,0.16711 0.379666,0.0203 0.323863,0.16708 0.252991,0.34426 l -0.420112,1.05317 c -0.0506,0.12656 -0.07112,0.12631 -0.116675,0.02 l -0.43513,-1.10861 c -0.09112,-0.23792 -0.08115,-0.28859 0.187143,-0.30883 0.03037,-0.0304 0.03037,-0.13675 0,-0.16712 -0.151868,0.005 -0.354115,0.0104 -0.505983,0.0104 -0.126554,0 -0.293662,-0.005 -0.445527,-0.0104 -0.03037,0.0304 -0.03037,0.13674 0,0.16712 0.237924,0.0253 0.293567,0.17234 0.384685,0.39508 l 0.03543,0.0809 -0.354264,0.89606 c -0.06581,0.16706 -0.08129,0.17706 -0.147099,0.01 l -0.404708,-1.04278 c -0.09112,-0.24298 -0.08626,-0.32406 0.156723,-0.33924 0.03037,-0.0304 0.03037,-0.13675 0,-0.16712 -0.151867,0.005 -0.329134,0.0104 -0.511374,0.0104 -0.192365,0 -0.328928,-0.005 -0.460545,-0.0104 z m 29.26616,0.11667 c 0.31892,0 0.491351,0.23292 0.491351,0.65308 0,0.47079 -0.2382,0.56682 -0.425504,0.56682 -0.425223,0 -0.470557,-0.35951 -0.470557,-0.68349 0,-0.35436 0.12629,-0.53641 0.40471,-0.53641 z m -7.685245,0.02 c 0.192363,0 0.420112,0.10656 0.420112,0.53178 0,0.0455 -0.02019,0.0709 -0.07586,0.0709 l -0.916467,0.0151 c 0.09618,-0.57203 0.450717,-0.61765 0.572215,-0.61765 z m 3.337024,0 c 0.435351,0 0.703525,0.39506 0.703525,1.12402 0,0.63784 -0.328902,0.79478 -0.566824,0.79478 -0.526469,0 -0.698519,-0.63795 -0.698519,-1.02775 0,-0.44041 0.106221,-0.89105 0.561818,-0.89105 z m -5.809179,0.0558 c 0.323979,0 0.602252,0.36447 0.602252,0.9365 0,0.41509 -0.146571,0.93148 -0.713537,0.93148 -0.09112,0 -0.268533,-0.0253 -0.359657,-0.10627 -0.106304,-0.0911 -0.121298,-0.11652 -0.121298,-0.30383 v -0.92147 c 0,-0.10631 0.02014,-0.14664 0.08087,-0.22258 0.131623,-0.16199 0.359502,-0.31383 0.511374,-0.31383 z m -2.227636,0.8098 v 0.66849 c 0,0.0658 -0.03039,0.10093 -0.07085,0.13131 -0.131615,0.1063 -0.303782,0.22296 -0.445526,0.22296 -0.253115,0 -0.364277,-0.20273 -0.364277,-0.35966 0,-0.2278 0.106348,-0.46063 0.480954,-0.55681 z m -12.899489,0.69352 c -0.146805,0 -0.268395,0.12159 -0.268395,0.26839 0,0.14681 0.12159,0.2684 0.268395,0.2684 0.146803,0 0.268008,-0.12159 0.268008,-0.2684 0,-0.1468 -0.121205,-0.26839 -0.268008,-0.26839 z m 19.17114,0 c -0.146805,0 -0.268395,0.12159 -0.268395,0.26839 0,0.14681 0.12159,0.2684 0.268395,0.2684 0.146802,0 0.268008,-0.12159 0.268008,-0.2684 0,-0.1468 -0.121206,-0.26839 -0.268008,-0.26839 z m 5.657846,0.53679 c 0.05566,0.0152 0.136744,0.0254 0.202548,0.0254 0.156929,0 0.298797,-0.0154 0.369669,-0.0154 0.253107,0 0.465458,0.005 0.612261,0.0863 0.197422,0.11137 0.258383,0.18221 0.258383,0.31383 0,0.36448 -0.536723,0.55681 -0.992327,0.55681 -0.182236,0 -0.607257,-0.14673 -0.607257,-0.49096 0,-0.17211 0.0099,-0.29878 0.156723,-0.47595 z"
       id="path1313"
       inkscape:connector-curvature="0"
       inkscape:export-xdpi="96"
       inkscape:export-ydpi="96" />
    <text
       xml:space="preserve"
       style="font-style:normal;font-weight:normal;font-size:10.58333302px;line-height:1.25;font-family:sans-serif;letter-spacing:0px;word-spacing:0px;fill:#000000;fill-opacity:1;stroke:none;stroke-width:0.26458332"
       x="5.9637666"
       y="258.00613"
       id="text3819"><tspan
         sodipodi:role="line"
         id="tspan3817"
         x="5.9637666"
         y="258.00613"
         style="stroke-width:0.26458332">test</tspan></text>
  </g>
</svg>
